<svg width="121" height="157" viewBox="0 0 121 157" fill="none" xmlns="http://www.w3.org/2000/svg">
<g id="Frame" clip-path="url(#clip0_913_326)">
<g id="Group 9678">
<g id="Group 9677">
<g id="Group">
<g id="Group_2">
<path id="Vector" d="M5.14073 257.182C66.9867 258.058 117.972 204.25 118.792 137.237C119.612 70.2245 69.9621 14.9901 8.11614 14.1136C-53.7298 13.2372 -104.715 67.0454 -105.535 134.058C-106.356 201.071 -56.7052 256.305 5.14073 257.182ZM8.09877 15.5333C69.2212 16.3995 118.293 70.9899 117.482 137.219C116.671 203.447 66.2805 256.628 5.15811 255.762C-55.9643 254.896 -105.036 200.305 -104.225 134.077C-103.414 67.848 -53.0236 14.6671 8.09877 15.5333Z" fill="url(#paint0_linear_913_326)"/>
</g>
<g id="Group_3">
<path id="Vector_2" d="M5.28295 245.428C61.1643 246.22 107.225 197.609 107.966 137.059C108.708 76.5091 63.8526 26.6092 7.9712 25.8173C-47.9004 25.0255 -93.9711 73.6369 -94.7123 134.187C-95.4535 194.737 -50.5886 244.637 5.28295 245.428ZM7.95369 27.2476C63.1115 28.0293 107.388 77.2852 106.656 137.04C105.915 196.806 60.4582 244.78 5.30046 243.998C-49.8573 243.216 -94.1238 193.971 -93.3922 134.205C-92.6606 74.4396 -47.2041 26.466 7.95369 27.2476Z" fill="url(#paint1_linear_913_326)"/>
</g>
<g id="Group_4">
<path id="Vector_3" d="M5.45718 231.325C54.1615 232.015 94.3075 189.646 94.9535 136.873C95.5995 84.0995 56.5045 40.6075 7.80018 39.9173C-40.9041 39.2271 -81.0501 81.5961 -81.6961 134.369C-82.3421 187.143 -43.2471 230.635 5.45718 231.325ZM7.7828 41.337C55.7635 42.0169 94.2796 84.8649 93.6432 136.854C93.0068 188.843 53.4553 230.585 5.47456 229.905C-42.5062 229.225 -81.0223 186.377 -80.3859 134.388C-79.7495 82.3987 -40.1979 40.657 7.7828 41.337Z" fill="url(#paint2_linear_913_326)"/>
</g>
<g id="Group_5">
<path id="Vector_4" d="M5.76188 207.756C42.4586 208.276 72.7068 176.353 73.1935 136.59C73.6802 96.828 44.224 64.0589 7.52723 63.5389C-29.1695 63.0188 -59.4177 94.9418 -59.9044 134.704C-60.3911 174.467 -30.9349 207.236 5.76188 207.756ZM7.50985 64.9586C43.483 65.4683 72.3604 97.5935 71.8832 136.572C71.4061 175.55 41.7525 206.846 5.77926 206.336C-30.1939 205.826 -59.0713 173.701 -58.5941 134.723C-58.117 95.7444 -28.4634 64.4488 7.50985 64.9586Z" fill="url(#paint3_linear_913_326)"/>
</g>
<g id="Group_6">
<path id="Vector_5" d="M5.62581 218.62C47.8668 219.219 82.6825 182.476 83.2428 136.706C83.8031 90.9356 49.8988 53.2182 7.65781 52.6195C-34.5832 52.0209 -69.3989 88.7645 -69.9592 134.534C-70.5195 180.304 -36.6152 218.022 5.62581 218.62ZM7.64043 54.0393C49.1579 54.6276 82.4832 91.701 81.9325 136.687C81.3819 181.673 47.1606 217.789 5.64318 217.201C-35.8743 216.612 -69.1996 179.539 -68.6489 134.553C-68.0983 89.5671 -33.877 53.4509 7.64043 54.0393Z" fill="url(#paint4_linear_913_326)"/>
</g>
</g>
</g>
</g>
</g>
<defs>
<linearGradient id="paint0_linear_913_326" x1="8.11614" y1="14.1136" x2="4.67162" y2="257.175" gradientUnits="userSpaceOnUse">
<stop stop-color="#3C72B8"/>
<stop offset="1" stop-color="#3C72B8" stop-opacity="0"/>
</linearGradient>
<linearGradient id="paint1_linear_913_326" x1="7.9712" y1="25.8173" x2="4.85912" y2="245.422" gradientUnits="userSpaceOnUse">
<stop stop-color="#3C72B8"/>
<stop offset="1" stop-color="#3C72B8" stop-opacity="0"/>
</linearGradient>
<linearGradient id="paint2_linear_913_326" x1="7.80019" y1="39.9173" x2="5.08778" y2="231.32" gradientUnits="userSpaceOnUse">
<stop stop-color="#3C72B8"/>
<stop offset="1" stop-color="#3C72B8" stop-opacity="0"/>
</linearGradient>
<linearGradient id="paint3_linear_913_326" x1="7.52723" y1="63.5389" x2="5.48355" y2="207.752" gradientUnits="userSpaceOnUse">
<stop stop-color="#3C72B8"/>
<stop offset="1" stop-color="#3C72B8" stop-opacity="0"/>
</linearGradient>
<linearGradient id="paint4_linear_913_326" x1="7.6578" y1="52.6195" x2="5.30542" y2="218.616" gradientUnits="userSpaceOnUse">
<stop stop-color="#3C72B8"/>
<stop offset="1" stop-color="#3C72B8" stop-opacity="0"/>
</linearGradient>
<clipPath id="clip0_913_326">
<rect width="118.115" height="155.052" fill="white" transform="matrix(-0.999941 -0.0108135 -0.0149107 0.999889 120.42 1.96582)"/>
</clipPath>
</defs>
</svg>
