<svg width="48" height="48" viewBox="0 0 48 48" fill="none" xmlns="http://www.w3.org/2000/svg">
<g id="Facebook Icon">
<g id="_x30_1._Facebook">
<path id="Icon_11_" d="M19.392 26.4957C19.248 26.4957 16.08 26.4957 14.64 26.4957C13.872 26.4957 13.632 26.2077 13.632 25.4877C13.632 23.5677 13.632 21.5997 13.632 19.6797C13.632 18.9117 13.92 18.6717 14.64 18.6717H19.392C19.392 18.5277 19.392 15.7437 19.392 14.4477C19.392 12.5277 19.728 10.7037 20.688 9.02366C21.696 7.29566 23.136 6.14366 24.96 5.47166C26.16 5.03966 27.36 4.84766 28.656 4.84766H33.36C34.032 4.84766 34.32 5.13566 34.32 5.80766V11.2797C34.32 11.9517 34.032 12.2397 33.36 12.2397C32.064 12.2397 30.768 12.2397 29.472 12.2877C28.176 12.2877 27.504 12.9117 27.504 14.2557C27.456 15.6957 27.504 17.0877 27.504 18.5757H33.072C33.84 18.5757 34.128 18.8637 34.128 19.6317V25.4397C34.128 26.2077 33.888 26.4477 33.072 26.4477C31.344 26.4477 27.648 26.4477 27.504 26.4477V42.0957C27.504 42.9117 27.264 43.1997 26.4 43.1997C24.384 43.1997 22.416 43.1997 20.4 43.1997C19.68 43.1997 19.392 42.9117 19.392 42.1917C19.392 37.1517 19.392 26.6397 19.392 26.4957Z" fill="white"/>
</g>
</g>
</svg>
