<svg width="153" height="160" viewBox="0 0 153 160" fill="none" xmlns="http://www.w3.org/2000/svg">
<g id="Design" opacity="0.1">
<path id="Polygon 14" d="M1.38694 79.5179L76.4204 1.44316L151.454 79.5179L76.4204 157.593L1.38694 79.5179Z" stroke="#191919" stroke-width="2"/>
<path id="Polygon 15" d="M11.7267 79.5176L76.4206 11.8939L141.114 79.5176L76.4206 147.141L11.7267 79.5176Z" stroke="#191919" stroke-width="2"/>
<path id="Polygon 16" d="M22.0654 79.5172L76.4207 22.3458L130.776 79.5172L76.4207 136.689L22.0654 79.5172Z" stroke="#191919" stroke-width="2"/>
<path id="Polygon 17" d="M32.4023 79.5188L76.4209 32.802L120.439 79.5188L76.4209 126.236L32.4023 79.5188Z" stroke="#191919" stroke-width="2"/>
<path id="Polygon 18" d="M43.904 79.5191L76.4203 45.5592L108.937 79.5191L76.4203 113.479L43.904 79.5191Z" stroke="#191919" stroke-width="2"/>
<path id="Polygon 19" d="M55.3853 79.518L76.4207 57.1794L97.4561 79.518L76.4207 101.857L55.3853 79.518Z" stroke="#191919" stroke-width="2"/>
<path id="Polygon 20" d="M65.7015 79.5196L76.4199 67.6612L87.1383 79.5196L76.4199 91.3781L65.7015 79.5196Z" stroke="#191919" stroke-width="2"/>
</g>
</svg>
