<svg width="80" height="80" viewBox="0 0 80 80" fill="none" xmlns="http://www.w3.org/2000/svg">
<g id="Arrow Icon" clip-path="url(#clip0_1_255)">
<g id="Group">
<g id="Group_2">
<path id="Vector" d="M78.7213 36.8918L49.8305 8.00029C49.0058 7.17558 47.9066 6.7229 46.7346 6.7229C45.5613 6.7229 44.4627 7.17623 43.638 8.00029L41.015 10.624C40.1909 11.4474 39.7369 12.5472 39.7369 13.7199C39.7369 14.8919 40.1909 16.0288 41.015 16.8522L57.8694 33.7438H4.32192C1.90763 33.7438 0 35.6339 0 38.0488V41.7581C0 44.173 1.90763 46.2536 4.32192 46.2536H58.0607L41.0156 63.2395C40.1915 64.0642 39.7376 65.1341 39.7376 66.3068C39.7376 67.4782 40.1915 68.5637 41.0156 69.3878L43.6387 72.003C44.4634 72.8277 45.5619 73.2772 46.7352 73.2772C47.9073 73.2772 49.0064 72.8219 49.8311 71.9972L78.722 43.1063C79.5486 42.279 80.0033 41.1747 80 40.0007C80.0026 38.8228 79.5486 37.7178 78.7213 36.8918Z" fill="white"/>
</g>
</g>
</g>
<defs>
<clipPath id="clip0_1_255">
<rect width="80" height="80" fill="white"/>
</clipPath>
</defs>
</svg>
