<svg width="123" height="123" viewBox="0 0 123 123" fill="none" xmlns="http://www.w3.org/2000/svg">
<path id="Arrow Icon" fill-rule="evenodd" clip-rule="evenodd" d="M61.5 123C95.4655 123 123 95.4655 123 61.5C123 27.5345 95.4655 0 61.5 0C27.5345 0 0 27.5345 0 61.5C0 95.4655 27.5345 123 61.5 123ZM69.8644 36.4002L92.9771 59.5134C93.6389 60.1742 94.0021 61.0582 94 62.0005C94.0026 62.9397 93.6389 63.8232 92.9776 64.485L69.8649 87.5977C69.2051 88.2575 68.3258 88.6217 67.3882 88.6217C66.4495 88.6217 65.5707 88.2622 64.9109 87.6024L62.8125 85.5102C62.1532 84.8509 61.7901 83.9825 61.7901 83.0454C61.7901 82.1073 62.1532 81.2514 62.8125 80.5916L76.4485 67.0029H33.4575C31.5261 67.0029 30 65.3384 30 63.4064V60.439C30 58.5071 31.5261 56.995 33.4575 56.995H76.2956L62.812 43.4818C62.1527 42.8231 61.7895 41.9135 61.7895 40.9759C61.7895 40.0378 62.1527 39.1579 62.812 38.4992L64.9104 36.4002C65.5702 35.741 66.449 35.3783 67.3877 35.3783C68.3253 35.3783 69.2046 35.7404 69.8644 36.4002Z" fill="white"/>
</svg>
