<svg width="110" height="110" viewBox="0 0 110 110" fill="none" xmlns="http://www.w3.org/2000/svg">
<g id="Cloud Icon">
<g id="Cloud_1_">
<g id="Group">
<path id="Vector" d="M90.4492 87.2266H19.5508C14.3838 87.2266 9.49738 85.2227 5.79176 81.5839C2.05691 77.9167 0 73.0535 0 67.8906C0 62.7277 2.05691 57.8645 5.79176 54.1973C8.71664 51.3253 12.3771 49.4719 16.3307 48.8181C16.329 48.7309 16.3281 48.643 16.3281 48.5547C16.3281 34.3389 27.8936 22.7734 42.1094 22.7734C47.3812 22.7734 52.4474 24.3605 56.7604 27.3631C59.7966 29.4768 62.3174 32.1849 64.1912 35.3216C67.216 33.4454 70.7049 32.4414 74.3359 32.4414C83.9794 32.4414 91.9965 39.5368 93.4401 48.7816C97.4815 49.4003 101.227 51.2697 104.208 54.1973C107.943 57.8645 110 62.7275 110 67.8906C110 73.0537 107.943 77.9167 104.208 81.5839C100.503 85.2227 95.6162 87.2266 90.4492 87.2266ZM19.5508 55C12.3243 55 6.44531 60.7827 6.44531 67.8906C6.44531 74.9985 12.3243 80.7812 19.5508 80.7812H90.4492C97.6757 80.7812 103.555 74.9985 103.555 67.8906C103.555 60.7827 97.6757 55 90.4492 55H87.2266V51.7773C87.2266 44.6695 81.4438 38.8867 74.3359 38.8867C70.9487 38.8867 67.7445 40.2016 65.3136 42.5891L61.8447 45.9961L60.0583 41.4739C57.1173 34.0293 50.0719 29.2188 42.1094 29.2188C31.4475 29.2188 22.7734 37.8929 22.7734 48.5547C22.7734 49.3161 22.8929 50.1336 23.0192 50.9992L23.5965 55H19.5508Z" fill="white"/>
</g>
</g>
</g>
</svg>
