<svg width="100" height="100" viewBox="0 0 100 100" fill="none" xmlns="http://www.w3.org/2000/svg">
<g id="Marketing Icon" clip-path="url(#clip0_78_3482)">
<g id="g3093">
<g id="g3095">
<g id="Clip path group">
<mask id="mask0_78_3482" style="mask-type:luminance" maskUnits="userSpaceOnUse" x="0" y="0" width="100" height="100">
<g id="clipPath3101">
<path id="path3099" d="M0 7.62939e-06H100V100H0V7.62939e-06Z" fill="white"/>
</g>
</mask>
<g mask="url(#mask0_78_3482)">
<g id="g3097">
<g id="g3103">
<path id="path3105" d="M82.0498 4.69175C74.0574 11.5066 66.1531 17.1447 57.9043 20.8005C48.5242 24.9578 38.7006 26.2781 29.1016 26.1392V46.9474V67.7462C38.7006 67.6072 48.5242 68.9183 57.9043 73.0755C66.0717 76.6953 73.9014 82.2648 81.8133 88.9861" stroke="white" stroke-width="5" stroke-miterlimit="22.926" stroke-linecap="round" stroke-linejoin="round"/>
</g>
<g id="g3107">
<path id="path3109" d="M85.3516 90.8203C91.8059 90.8203 97.0703 71.0793 97.0703 46.875C97.0703 22.6707 91.8059 2.92969 85.3516 2.92969C78.8971 2.92969 73.6328 22.6707 73.6328 46.875C73.6328 71.0793 78.8971 90.8203 85.3516 90.8203Z" stroke="white" stroke-width="5" stroke-miterlimit="22.926" stroke-linecap="round" stroke-linejoin="round"/>
</g>
<g id="g3111">
<path id="path3113" d="M74.3394 33.5534C80.7749 34.5503 85.7423 40.1501 85.7423 46.8538C85.7423 53.3161 81.1265 58.7524 75.0288 60.0288" stroke="white" stroke-width="5" stroke-miterlimit="22.926" stroke-linecap="round" stroke-linejoin="round"/>
</g>
<g id="g3115">
<path id="path3117" d="M29.1016 26.1863H15.8203C8.72031 26.1863 2.92969 31.9769 2.92969 39.0769V54.8972C2.92969 61.9972 8.72031 67.7878 15.8203 67.7878H29.1016V26.1863Z" stroke="white" stroke-width="5" stroke-miterlimit="22.926" stroke-linecap="round" stroke-linejoin="round"/>
</g>
<g id="g3119">
<path id="path3121" d="M41.4062 69.5313L33.5398 92.5188C32.5928 95.2729 30.1486 97.0703 27.2363 97.0703H26.9531C23.2955 97.0703 20.3125 94.0873 20.3125 90.4297V67.7879" stroke="white" stroke-width="5" stroke-miterlimit="22.926" stroke-linecap="round" stroke-linejoin="round"/>
</g>
</g>
</g>
</g>
</g>
</g>
</g>
<defs>
<clipPath id="clip0_78_3482">
<rect width="100" height="100" fill="white"/>
</clipPath>
</defs>
</svg>
