<svg width="60" height="100" viewBox="0 0 60 100" fill="none" xmlns="http://www.w3.org/2000/svg">
<g id="Mobile Icon">
<path id="Vector" d="M49.5575 0H10.4425C7.67394 0.00311385 5.01966 1.10275 3.06199 3.05767C1.10431 5.01259 0.00311824 7.66314 0 10.4278V89.5722C0.00311824 92.3369 1.10431 94.9874 3.06199 96.9423C5.01966 98.8972 7.67394 99.9969 10.4425 100H49.5575C52.3261 99.9969 54.9803 98.8972 56.938 96.9423C58.8957 94.9874 59.9969 92.3369 60 89.5722V10.4278C59.9969 7.66314 58.8957 5.01259 56.938 3.05767C54.9803 1.10275 52.3261 0.00311385 49.5575 0ZM41.7561 3.74332V6.16257C41.7553 6.65123 41.5604 7.11962 41.2143 7.46505C40.8682 7.81049 40.399 8.00478 39.9097 8.00535H20.0957C19.6064 8.00478 19.1374 7.81045 18.7914 7.46498C18.4455 7.11952 18.2509 6.65113 18.2503 6.16257V3.74332H41.7561ZM56.2503 89.5722C56.2483 91.3444 55.5425 93.0435 54.2875 94.2967C53.0326 95.5498 51.3311 96.2547 49.5564 96.2567H10.4425C8.66778 96.2547 6.96631 95.5498 5.71139 94.2967C4.45647 93.0435 3.75058 91.3444 3.74859 89.5722V10.4278C3.75058 8.65558 4.45647 6.9565 5.71139 5.70335C6.96631 4.45019 8.66778 3.7453 10.4425 3.74332H14.4974V6.16257C14.4991 7.64357 15.089 9.06343 16.1377 10.1107C17.1864 11.1579 18.6083 11.747 20.0914 11.7487H39.9054C41.3886 11.747 42.8106 11.1579 43.8594 10.1107C44.9083 9.06352 45.4985 7.64367 45.5004 6.16257V3.74332H49.5575C51.332 3.74558 53.0332 4.4506 54.2879 5.70372C55.5426 6.95685 56.2484 8.65576 56.2503 10.4278V89.5722Z" fill="white"/>
<path id="Vector_2" d="M41.5249 87.3445H18.4754C17.9783 87.3445 17.5015 87.5417 17.15 87.8927C16.7985 88.2437 16.6011 88.7197 16.6011 89.2161C16.6011 89.7125 16.7985 90.1886 17.15 90.5396C17.5015 90.8906 17.9783 91.0878 18.4754 91.0878H41.5249C42.022 91.0878 42.4988 90.8906 42.8503 90.5396C43.2018 90.1886 43.3992 89.7125 43.3992 89.2161C43.3992 88.7197 43.2018 88.2437 42.8503 87.8927C42.4988 87.5417 42.022 87.3445 41.5249 87.3445Z" fill="white"/>
</g>
</svg>
