<svg width="96" height="96" viewBox="0 0 96 96" fill="none" xmlns="http://www.w3.org/2000/svg">
<g id="Web Icon" clip-path="url(#clip0_1_183)">
<g id="Group">
<g id="Group_2">
<path id="Vector" d="M81.9412 14.059C72.8752 4.99276 60.8214 0 48.0001 0C35.1788 0 23.1248 4.99276 14.059 14.0588C4.99276 23.1248 0 35.1788 0 48.0001C0 60.8214 4.99276 72.8752 14.059 81.9412C23.1248 91.0072 35.1788 96 48.0001 96C60.8216 96 72.8752 91.0072 81.9414 81.941C91.0072 72.8752 96.0002 60.8212 96.0002 47.9999C96.0002 35.1786 91.0073 23.1248 81.9412 14.059ZM18.0405 18.0405C22.2614 13.8197 27.2164 10.6003 32.6172 8.49902C31.1787 10.2949 29.8326 12.3591 28.5991 14.6807C27.1664 17.377 25.9302 20.3382 24.9006 23.5011C21.334 22.9092 18.0293 22.1813 15.0769 21.327C16.0022 20.1897 16.9894 19.0917 18.0405 18.0405ZM11.668 26.1722C15.1212 27.2779 19.0703 28.2104 23.3794 28.9489C22.1794 34.0426 21.4731 39.5238 21.3045 45.1848H5.72551C6.16801 38.3911 8.20839 31.9073 11.668 26.1722ZM11.3614 69.3073C8.08858 63.7012 6.1547 57.4046 5.72532 50.8154H21.3152C21.4994 56.3146 22.1916 61.64 23.3511 66.6003C18.9535 67.3132 14.9052 68.222 11.3614 69.3073ZM18.0405 77.9597C16.8443 76.7632 15.7302 75.507 14.6972 74.1993C17.7578 73.3507 21.1793 72.632 24.8624 72.0556C25.8992 75.2625 27.1487 78.2628 28.5989 80.9923C29.9432 83.5222 31.4213 85.7452 33.007 87.6495C27.4551 85.5527 22.3628 82.2815 18.0405 77.9597ZM45.1846 89.6467C40.9081 88.4488 36.8626 84.5435 33.5716 78.35C32.4205 76.184 31.4095 73.821 30.5434 71.3025C35.1803 70.7921 40.1144 70.4904 45.1846 70.4195V89.6467ZM45.1846 64.7883C39.5618 64.865 34.0814 65.2181 28.9489 65.8209C27.8168 61.1407 27.1356 56.075 26.9487 50.8156H45.1848V64.7883H45.1846ZM45.1846 45.1846H26.938C27.1088 39.7782 27.8009 34.5711 28.9682 29.7719C34.0679 30.4094 39.5369 30.7971 45.1846 30.9081V45.1846ZM45.1846 25.2766C40.0947 25.174 35.1715 24.8421 30.5674 24.3006C31.4283 21.8084 32.4314 19.4691 33.5716 17.3228C36.8624 11.1293 40.9081 7.22401 45.1846 6.02607V25.2766ZM84.5096 26.4713C87.861 32.1325 89.8397 38.5086 90.2751 45.1846H74.696C74.5293 39.5888 73.8365 34.1691 72.6617 29.1257C76.9991 28.4252 80.9972 27.5341 84.5096 26.4713ZM77.9595 18.0405C79.0899 19.171 80.1459 20.356 81.1309 21.5862C78.1172 22.4091 74.7611 23.1075 71.1551 23.6697C70.1148 20.4432 68.8595 17.425 67.4013 14.6807C66.1678 12.3591 64.8217 10.2949 63.3832 8.49902C68.7836 10.6003 73.7388 13.8197 77.9595 18.0405ZM50.8156 50.8156H69.0517C68.8635 56.1159 68.1731 61.22 67.0248 65.9304C61.9259 65.2964 56.4594 64.9123 50.8156 64.8043V50.8156ZM50.8156 45.1846V30.9269C56.4416 30.853 61.9263 30.5029 67.0636 29.9024C68.2121 34.6654 68.8929 39.8271 69.0622 45.1846H50.8156ZM50.8152 6.02607H50.8154C55.0919 7.22401 59.1374 11.1293 62.4284 17.3228C63.5868 19.5029 64.6036 21.8824 65.4734 24.4193C60.8304 24.9278 55.8907 25.2272 50.8152 25.2957V6.02607ZM50.8156 89.6467V70.4358C55.9006 70.5356 60.8201 70.8644 65.4224 71.4026C64.5639 73.8836 63.5641 76.2127 62.4286 78.35C59.1376 84.5435 55.0921 88.4488 50.8156 89.6467ZM77.9595 77.9597C73.6374 82.2817 68.5451 85.5527 62.993 87.6493C64.5787 85.745 66.0568 83.5222 67.4011 80.9923C68.8299 78.3033 70.0633 75.3508 71.0911 72.1974C74.7408 72.7998 78.1173 73.5448 81.1252 74.421C80.1422 75.6483 79.0879 76.8311 77.9595 77.9597ZM84.4888 69.5643C80.9947 68.441 76.9888 67.4958 72.6152 66.7499C73.7957 61.7474 74.4992 56.3699 74.6853 50.8156H90.2753C89.8388 57.5052 87.8531 63.8943 84.4888 69.5643Z" fill="white"/>
</g>
</g>
</g>
<defs>
<clipPath id="clip0_1_183">
<rect width="96" height="96" fill="white"/>
</clipPath>
</defs>
</svg>
