<svg width="642" height="600" viewBox="0 0 642 600" fill="none" xmlns="http://www.w3.org/2000/svg">
<path d="M92.2833 167.738L94.987 173.19L101.012 174.074L96.656 178.325L97.6907 184.327L92.2833 181.493L86.8926 184.327L87.9273 178.325L83.5547 174.074L89.5963 173.19L92.2833 167.738Z" fill="#EBEBEB"/>
<path d="M632.44 424.873L635.143 430.342L641.185 431.225L636.812 435.477L637.847 441.479L632.44 438.644L627.049 441.479L628.084 435.477L623.711 431.225L629.753 430.342L632.44 424.873Z" fill="#F5F5F5"/>
<path d="M525.456 583.41L528.143 588.862L534.185 589.746L529.812 593.997L530.847 599.999L525.456 597.165L520.049 599.999L521.084 593.997L516.711 589.746L522.753 588.862L525.456 583.41Z" fill="#F5F5F5"/>
<path d="M280.692 70.8712L281.694 72.9052L283.93 73.222C284.498 73.3054 284.715 73.9889 284.314 74.3891L282.695 75.9729L283.079 78.207C283.179 78.7572 282.595 79.1907 282.094 78.9239L280.092 77.8736L278.089 78.9239C277.588 79.1907 277.004 78.7572 277.104 78.207L277.488 75.9729L275.869 74.3891C275.469 73.9889 275.686 73.3054 276.253 73.222L278.489 72.9052L279.491 70.8712C279.741 70.3711 280.459 70.3711 280.709 70.8712H280.692Z" fill="#EBEBEB"/>
<path d="M5.02836 557.467L6.02974 559.501L8.26613 559.818C8.83358 559.901 9.05054 560.585 8.64999 560.985L7.03111 562.569L7.41497 564.803C7.5151 565.353 6.93097 565.786 6.43028 565.52L4.42754 564.469L2.4248 565.52C1.92411 565.786 1.33998 565.353 1.44012 564.803L1.82397 562.569L0.205091 560.985C-0.195458 560.585 0.0215059 559.901 0.58895 559.818L2.82535 559.501L3.82672 557.467C4.07706 556.967 4.79471 556.967 5.04505 557.467H5.02836Z" fill="#F5F5F5"/>
<path d="M50.0596 49.4493L51.061 51.4834L53.2974 51.8001C53.8481 51.8835 54.0818 52.5671 53.6812 52.9672L52.0624 54.5511L52.4462 56.7851C52.5464 57.3353 51.9622 57.7688 51.4615 57.502L49.4588 56.4517L47.456 57.502C46.9554 57.7688 46.3712 57.3353 46.4714 56.7851L46.8552 54.5511L45.2363 52.9672C44.8358 52.5671 45.0528 51.8835 45.6202 51.8001L47.8566 51.4834L48.858 49.4493C49.1083 48.9492 49.826 48.9492 50.0763 49.4493H50.0596Z" fill="#EBEBEB"/>
<path d="M47.3535 451.282C47.3535 452.499 46.3688 453.499 45.1338 453.499C43.8987 453.499 42.9141 452.516 42.9141 451.282C42.9141 450.048 43.8987 449.064 45.1338 449.064C46.3688 449.064 47.3535 450.048 47.3535 451.282Z" fill="#EBEBEB"/>
<path d="M363.682 173.805C363.682 175.022 362.697 176.023 361.462 176.023C360.227 176.023 359.242 175.039 359.242 173.805C359.242 172.572 360.227 171.588 361.462 171.588C362.697 171.588 363.682 172.572 363.682 173.805Z" fill="#EBEBEB"/>
<path d="M248.596 51.2819C248.596 52.4989 247.611 53.4993 246.376 53.4993C245.141 53.4993 244.156 52.5156 244.156 51.2819C244.156 50.0481 245.141 49.0645 246.376 49.0645C247.611 49.0645 248.596 50.0481 248.596 51.2819Z" fill="#F5F5F5"/>
<path d="M252.098 591.694C258.691 590.14 262.775 583.54 261.219 576.953C259.663 570.366 253.056 566.287 246.462 567.841C239.869 569.396 235.785 575.996 237.341 582.583C238.897 589.169 245.504 593.249 252.098 591.694Z" fill="#F0F0F0"/>
<path d="M245.073 572.607C242.47 572.607 240.05 573.441 238.081 574.875C237.43 576.375 237.062 578.026 237.062 579.76C237.062 586.529 242.553 591.997 249.329 591.997C251.616 591.997 253.769 591.364 255.605 590.263C255.605 590.263 255.605 590.258 255.605 590.247C256.522 588.546 257.04 586.612 257.04 584.545C257.04 577.959 251.683 572.607 245.073 572.607Z" fill="#E6E6E6"/>
<path d="M150.072 366.808H48.5V321.009L150.056 200.402H198.656V323.61H223.84V366.825H198.656V404.287H150.056V366.825L150.072 366.808ZM150.072 323.594V260.506L96.3989 323.594H150.072Z" fill="#4895EF"/>
<path d="M241.237 303.219C241.237 265.123 248.096 238.447 261.831 223.226C275.567 208.004 296.479 200.385 324.584 200.385C338.086 200.385 349.168 202.052 357.846 205.37C366.508 208.704 373.584 213.022 379.059 218.357C384.533 223.693 388.839 229.294 391.993 235.18C395.147 241.065 397.667 247.917 399.587 255.753C403.325 270.708 405.194 286.297 405.194 302.519C405.194 338.898 399.036 365.507 386.719 382.379C374.402 399.251 353.19 407.671 323.065 407.671C306.175 407.671 292.54 404.987 282.143 399.601C271.745 394.216 263.2 386.347 256.541 375.944C251.701 368.558 247.946 358.471 245.242 345.65C242.555 332.846 241.203 318.691 241.203 303.186L241.237 303.219ZM296.529 303.353C296.529 328.878 298.782 346.317 303.305 355.653C307.828 364.99 314.37 369.675 322.948 369.675C328.606 369.675 333.513 367.691 337.669 363.723C341.824 359.755 344.878 353.486 346.848 344.916C348.817 336.347 349.785 322.992 349.785 304.853C349.785 278.244 347.532 260.355 343.009 251.185C338.486 242.015 331.71 237.447 322.681 237.447C313.652 237.447 306.81 242.115 302.704 251.469C298.598 260.822 296.546 278.111 296.546 303.353H296.529Z" fill="#4895EF"/>
<path d="M524.017 366.808H422.461V321.009L524.017 200.402H572.617V323.61H597.801V366.825H572.617V404.287H524.017V366.825V366.808ZM524.017 323.594V260.506L470.343 323.594H524.017Z" fill="#4895EF"/>
<g opacity="0.3">
<path d="M238.992 130.01C238.992 131.728 237.59 133.128 235.871 133.128C234.152 133.128 232.75 131.728 232.75 130.01C232.75 128.293 234.152 126.893 235.871 126.893C237.59 126.893 238.992 128.293 238.992 130.01Z" fill="#4895EF"/>
<path d="M25.3749 249.765C26.5916 249.765 27.5779 248.779 27.5779 247.564C27.5779 246.349 26.5916 245.363 25.3749 245.363C24.1582 245.363 23.1719 246.349 23.1719 247.564C23.1719 248.779 24.1582 249.765 25.3749 249.765Z" fill="#4895EF"/>
<path d="M389.357 571.158C391.1 571.158 392.512 569.747 392.512 568.007C392.512 566.266 391.1 564.855 389.357 564.855C387.615 564.855 386.203 566.266 386.203 568.007C386.203 569.747 387.615 571.158 389.357 571.158Z" fill="#4895EF"/>
<path d="M465.211 442.946C466.428 442.946 467.414 441.961 467.414 440.746C467.414 439.53 466.428 438.545 465.211 438.545C463.994 438.545 463.008 439.53 463.008 440.746C463.008 441.961 463.994 442.946 465.211 442.946Z" fill="#4895EF"/>
<path d="M611.523 46.648C611.523 47.8651 610.539 48.8487 609.32 48.8487C608.102 48.8487 607.117 47.8651 607.117 46.648C607.117 45.4309 608.102 44.4473 609.32 44.4473C610.539 44.4473 611.523 45.4309 611.523 46.648Z" fill="#4895EF"/>
<path d="M191.922 2.20074C191.922 3.41781 190.937 4.40147 189.719 4.40147C188.5 4.40147 187.516 3.41781 187.516 2.20074C187.516 0.983663 188.5 0 189.719 0C190.937 0 191.922 0.983663 191.922 2.20074Z" fill="#4895EF"/>
<path d="M367.055 117.739C368.271 117.739 369.258 116.754 369.258 115.539C369.258 114.323 368.271 113.338 367.055 113.338C365.838 113.338 364.852 114.323 364.852 115.539C364.852 116.754 365.838 117.739 367.055 117.739Z" fill="#4895EF"/>
</g>
<path d="M139.309 117.755C159.504 117.755 175.876 101.401 175.876 81.2262C175.876 61.0518 159.504 44.6973 139.309 44.6973C119.114 44.6973 102.742 61.0518 102.742 81.2262C102.742 101.401 119.114 117.755 139.309 117.755Z" fill="#4895EF"/>
<path opacity="0.7" d="M139.309 117.755C159.504 117.755 175.876 101.401 175.876 81.2262C175.876 61.0518 159.504 44.6973 139.309 44.6973C119.114 44.6973 102.742 61.0518 102.742 81.2262C102.742 101.401 119.114 117.755 139.309 117.755Z" fill="white"/>
<path opacity="0.2" d="M126.708 53.666C121.585 53.666 116.711 54.7164 112.289 56.617C106.364 63.1025 102.742 71.7554 102.742 81.2252C102.742 101.399 119.115 117.737 139.292 117.737C144.433 117.737 149.339 116.687 153.779 114.77C159.67 108.268 163.258 99.6481 163.258 90.1949C163.258 70.0048 146.886 53.666 126.692 53.666H126.708Z" fill="#4895EF"/>
<path opacity="0.2" d="M123.066 63.3208C123.066 65.1714 121.564 66.6552 119.729 66.6552C117.893 66.6552 116.391 65.1547 116.391 63.3208C116.391 61.4868 117.893 59.9863 119.729 59.9863C121.564 59.9863 123.066 61.4868 123.066 63.3208Z" fill="#4895EF"/>
<path opacity="0.2" d="M162.395 59.9848C162.395 61.8355 160.893 63.3193 159.057 63.3193C157.221 63.3193 155.719 61.8188 155.719 59.9848C155.719 58.1509 157.221 56.6504 159.057 56.6504C160.893 56.6504 162.395 58.1509 162.395 59.9848Z" fill="#4895EF"/>
<path opacity="0.2" d="M155.722 83.7927C155.722 86.8104 153.268 89.2612 150.248 89.2612C147.227 89.2612 144.773 86.8104 144.773 83.7927C144.773 80.775 147.227 78.3242 150.248 78.3242C153.268 78.3242 155.722 80.775 155.722 83.7927Z" fill="#4895EF"/>
<path opacity="0.2" d="M138.323 99.3806C138.323 103.415 135.052 106.683 131.013 106.683C126.974 106.683 123.703 103.415 123.703 99.3806C123.703 95.3459 126.974 92.0781 131.013 92.0781C135.052 92.0781 138.323 95.3459 138.323 99.3806Z" fill="#4895EF"/>
<path d="M572.703 521.844C576.775 504.611 566.091 487.344 548.84 483.276C531.589 479.209 514.303 489.882 510.232 507.115C506.16 524.348 516.844 541.616 534.095 545.683C551.346 549.75 568.632 539.078 572.703 521.844Z" fill="#4895EF"/>
<path opacity="0.3" d="M572.703 521.844C576.775 504.611 566.091 487.344 548.84 483.276C531.589 479.209 514.303 489.882 510.232 507.115C506.16 524.348 516.844 541.616 534.095 545.683C551.346 549.75 568.632 539.078 572.703 521.844Z" fill="white"/>
<path opacity="0.4" d="M561.731 489.661C558.81 488.777 555.706 488.311 552.485 488.311C534.76 488.311 520.391 502.665 520.391 520.371C520.391 530.408 524.997 539.344 532.223 545.23C535.144 546.113 538.248 546.58 541.47 546.58C559.194 546.58 573.563 532.225 573.563 514.519C573.563 504.483 568.957 495.53 561.731 489.661Z" fill="#4895EF"/>
<path d="M510.827 524.024C476.564 540.129 502.116 552.55 550.398 535.211C595.093 519.156 612.1 498.916 572.178 505.184C574.231 513.704 518.254 535.494 510.827 524.007V524.024Z" fill="#4895EF"/>
<path opacity="0.2" d="M561.348 200.387C516.47 230.68 458.374 270.627 442.335 366.792H438.914C454.519 271.794 510.495 230.797 555.39 200.387H561.348Z" fill="black"/>
<path d="M329.225 501.221C300.903 501.221 272.797 488.45 259.145 467.56C250.717 454.656 240.92 427.63 270.094 391.568L272.697 393.669C252.069 419.177 248.247 444.769 261.949 465.743C278.622 491.268 318.026 504.106 351.622 494.969C386.053 485.616 406.948 455.689 408.967 412.892C415.86 266.493 493.717 221.411 550.578 188.483C585.893 168.026 611.411 153.238 605.803 122.061C605.019 117.743 603.3 114.742 600.53 112.925C593.27 108.14 579.084 111.441 562.661 115.275C530.434 122.778 486.307 133.048 460.021 88.3831L462.891 86.6992C487.942 129.247 528.948 119.71 561.893 112.041C579.067 108.04 593.904 104.589 602.365 110.157C605.937 112.508 608.14 116.226 609.091 121.494C615.116 154.972 587.378 171.044 552.247 191.384C496.07 223.928 419.114 268.493 412.305 413.075C410.219 457.423 388.422 488.45 352.507 498.204C344.93 500.254 337.069 501.238 329.241 501.238L329.225 501.221Z" fill="#4895EF"/>
<path opacity="0.2" d="M329.225 501.221C300.903 501.221 272.797 488.45 259.145 467.56C250.717 454.656 240.92 427.63 270.094 391.568L272.697 393.669C252.069 419.177 248.247 444.769 261.949 465.743C278.622 491.268 318.026 504.106 351.622 494.969C386.053 485.616 406.948 455.689 408.967 412.892C415.86 266.493 493.717 221.411 550.578 188.483C585.893 168.026 611.411 153.238 605.803 122.061C605.019 117.743 603.3 114.742 600.53 112.925C593.27 108.14 579.084 111.441 562.661 115.275C530.434 122.778 486.307 133.048 460.021 88.3831L462.891 86.6992C487.942 129.247 528.948 119.71 561.893 112.041C579.067 108.04 593.904 104.589 602.365 110.157C605.937 112.508 608.14 116.226 609.091 121.494C615.116 154.972 587.378 171.044 552.247 191.384C496.07 223.928 419.114 268.493 412.305 413.075C410.219 457.423 388.422 488.45 352.507 498.204C344.93 500.254 337.069 501.238 329.241 501.238L329.225 501.221Z" fill="white"/>
<path d="M425.595 48.871C437.044 48.6709 448.259 52.4222 448.259 52.4222C448.259 52.4222 466.551 83.716 468.787 90.8851C468.02 97.9541 456.07 109.541 456.07 109.541L425.578 48.871H425.595Z" fill="#4895EF"/>
<path opacity="0.3" d="M425.595 48.871C437.044 48.6709 448.259 52.4222 448.259 52.4222C448.259 52.4222 466.551 83.716 468.787 90.8851C468.02 97.9541 456.07 109.541 456.07 109.541L425.578 48.871H425.595Z" fill="white"/>
<path d="M479.967 200.89C473.058 192.137 466.282 183.234 460.674 173.581C459.272 171.163 457.937 168.713 456.685 166.212C455.968 164.795 455.283 163.361 454.616 161.927C454.032 160.677 452.73 158.826 452.613 157.459C450.61 136.335 457.853 120.78 450.894 103.824L423.406 114.561C423.406 114.561 425.743 144.771 431.083 162.844C434.388 174.064 441.882 183.768 449.108 192.754C451.361 195.572 453.548 198.439 455.801 201.257C457.937 203.924 460.323 206.359 462.46 209.009C465.714 213.027 466.782 216.879 464.312 221.614C464.179 221.864 464.045 222.114 463.895 222.364C463.194 223.598 466.482 224.998 468.535 222.397C471.939 218.096 471.405 218.363 474.309 214.695C476.078 212.461 478.098 210.06 479.85 207.976C481.553 205.942 481.603 202.991 479.95 200.89H479.967Z" fill="#4895EF"/>
<path opacity="0.7" d="M479.967 200.89C473.058 192.137 466.282 183.234 460.674 173.581C459.272 171.163 457.937 168.713 456.685 166.212C455.968 164.795 455.283 163.361 454.616 161.927C454.032 160.677 452.73 158.826 452.613 157.459C450.61 136.335 457.853 120.78 450.894 103.824L423.406 114.561C423.406 114.561 425.743 144.771 431.083 162.844C434.388 174.064 441.882 183.768 449.108 192.754C451.361 195.572 453.548 198.439 455.801 201.257C457.937 203.924 460.323 206.359 462.46 209.009C465.714 213.027 466.782 216.879 464.312 221.614C464.179 221.864 464.045 222.114 463.895 222.364C463.194 223.598 466.482 224.998 468.535 222.397C471.939 218.096 471.405 218.363 474.309 214.695C476.078 212.461 478.098 210.06 479.85 207.976C481.553 205.942 481.603 202.991 479.95 200.89H479.967Z" fill="white"/>
<path opacity="0.3" d="M473.242 192.201C469.554 196.653 462.077 202.405 458.789 204.739C459.507 205.539 460.224 206.356 460.925 207.173C467.718 202.738 473.075 197.003 475.111 194.669C474.477 193.852 473.86 193.035 473.242 192.201Z" fill="#4895EF"/>
<path opacity="0.3" d="M479.949 200.904C479.882 200.821 479.815 200.754 479.748 200.654C478.597 201.855 477.779 203.789 477.646 205.939C477.529 207.423 477.779 208.79 478.28 209.857C478.83 209.207 479.348 208.574 479.865 207.973C481.584 205.939 481.601 202.988 479.949 200.904Z" fill="#4895EF"/>
<path d="M419.057 68.8761C416.187 73.0609 412.799 77.1789 408.41 80.8635C406.24 82.7141 403.753 84.398 401.033 85.8318C399.664 86.532 398.212 87.1322 396.727 87.6324L395.609 87.9992L395.241 88.1159C394.974 88.1992 394.707 88.2659 394.44 88.3326C393.94 88.4493 393.422 88.516 392.988 88.566C391.186 88.6994 389.867 88.4493 388.799 88.1826C386.663 87.599 385.244 86.8321 383.893 86.0819C382.557 85.315 381.406 84.5314 380.304 83.7311C378.135 82.0805 376.165 80.4133 374.33 78.646C370.641 75.1282 367.37 71.477 364.332 67.409C362.947 65.5583 363.331 62.9408 365.184 61.557C366.619 60.49 368.505 60.4733 369.923 61.3736L370.057 61.457C373.996 63.9578 377.968 66.592 381.84 68.9428C383.792 70.0932 385.712 71.2602 387.598 72.1605C388.516 72.6274 389.434 73.0608 390.251 73.3609C391.052 73.6777 391.837 73.8444 392.054 73.8111C392.137 73.8111 392.054 73.6944 391.42 73.7111C391.269 73.7111 391.052 73.7444 390.852 73.7778C390.735 73.7944 390.602 73.8278 390.485 73.8778C390.368 73.9111 390.535 73.8444 390.535 73.8444L391.086 73.561C391.82 73.1942 392.521 72.7274 393.239 72.2439C394.674 71.2769 396.026 70.0598 397.411 68.7094C400.165 65.9918 402.802 62.5907 405.589 59.0562L405.622 59.0061C408.476 55.3883 413.733 54.7714 417.355 57.639C420.827 60.3733 421.511 65.3249 419.057 68.9095V68.8761Z" fill="#4895EF"/>
<path opacity="0.7" d="M419.057 68.8761C416.187 73.0609 412.799 77.1789 408.41 80.8635C406.24 82.7141 403.753 84.398 401.033 85.8318C399.664 86.532 398.212 87.1322 396.727 87.6324L395.609 87.9992L395.241 88.1159C394.974 88.1992 394.707 88.2659 394.44 88.3326C393.94 88.4493 393.422 88.516 392.988 88.566C391.186 88.6994 389.867 88.4493 388.799 88.1826C386.663 87.599 385.244 86.8321 383.893 86.0819C382.557 85.315 381.406 84.5314 380.304 83.7311C378.135 82.0805 376.165 80.4133 374.33 78.646C370.641 75.1282 367.37 71.477 364.332 67.409C362.947 65.5583 363.331 62.9408 365.184 61.557C366.619 60.49 368.505 60.4733 369.923 61.3736L370.057 61.457C373.996 63.9578 377.968 66.592 381.84 68.9428C383.792 70.0932 385.712 71.2602 387.598 72.1605C388.516 72.6274 389.434 73.0608 390.251 73.3609C391.052 73.6777 391.837 73.8444 392.054 73.8111C392.137 73.8111 392.054 73.6944 391.42 73.7111C391.269 73.7111 391.052 73.7444 390.852 73.7778C390.735 73.7944 390.602 73.8278 390.485 73.8778C390.368 73.9111 390.535 73.8444 390.535 73.8444L391.086 73.561C391.82 73.1942 392.521 72.7274 393.239 72.2439C394.674 71.2769 396.026 70.0598 397.411 68.7094C400.165 65.9918 402.802 62.5907 405.589 59.0562L405.622 59.0061C408.476 55.3883 413.733 54.7714 417.355 57.639C420.827 60.3733 421.511 65.3249 419.057 68.9095V68.8761Z" fill="white"/>
<path d="M358.043 57.9888L359.996 61.2733C359.996 61.2733 361.498 65.6414 364.485 66.4416L372.58 63.8241L372.179 63.1405C371.144 61.5567 371.261 58.5223 371.612 55.9882C371.979 53.454 370.66 53.3706 369.692 53.9875C369.125 54.3543 368.741 55.5047 368.274 56.7551C367.873 56.2049 367.456 55.6714 366.972 55.2046L364.502 52.7371C363.434 51.67 361.715 51.62 360.597 52.6204L358.594 54.4043C357.576 55.3046 357.342 56.8218 358.043 57.9888Z" fill="#4895EF"/>
<path opacity="0.7" d="M358.043 57.9888L359.996 61.2733C359.996 61.2733 361.498 65.6414 364.485 66.4416L372.58 63.8241L372.179 63.1405C371.144 61.5567 371.261 58.5223 371.612 55.9882C371.979 53.454 370.66 53.3706 369.692 53.9875C369.125 54.3543 368.741 55.5047 368.274 56.7551C367.873 56.2049 367.456 55.6714 366.972 55.2046L364.502 52.7371C363.434 51.67 361.715 51.62 360.597 52.6204L358.594 54.4043C357.576 55.3046 357.342 56.8218 358.043 57.9888Z" fill="white"/>
<path d="M433.784 45.9851C426.023 47.869 415.359 52.2872 408.165 56.772C405.612 58.3559 404.343 61.3735 404.944 64.3079C408.149 80.0465 415.475 101.12 423.386 114.541L460.287 99.2862C460.537 92.7841 451.575 71.7437 442.462 51.4035C440.827 47.7523 437.689 45.0347 433.784 45.9684V45.9851Z" fill="#4895EF"/>
<path opacity="0.8" d="M433.784 45.9851C426.023 47.869 415.359 52.2872 408.165 56.772C405.612 58.3559 404.343 61.3735 404.944 64.3079C408.149 80.0465 415.475 101.12 423.386 114.541L460.287 99.2862C460.537 92.7841 451.575 71.7437 442.462 51.4035C440.827 47.7523 437.689 45.0347 433.784 45.9684V45.9851Z" fill="white"/>
<path opacity="0.3" d="M448.178 64.3082L440.852 61.8574C442.487 66.1422 448.412 71.5607 452.584 74.7451C451.216 71.394 449.73 67.9094 448.178 64.3082Z" fill="#4895EF"/>
<path d="M431.364 29.481C428.327 23.6791 421.734 20.7614 413.807 21.4117C407.131 21.9618 401.223 28.7808 401.924 32.4487C402.625 36.1333 408.232 37.6838 409.251 38.9675L404.628 42.3187C402.324 43.9859 401.874 47.237 403.626 49.4711C405.579 51.9385 408.132 54.5227 409.634 56.34C422.419 56.0066 431.882 51.1383 435.286 46.4367C434.068 40.468 434.385 35.2496 431.347 29.4644L431.364 29.481Z" fill="#4895EF"/>
<path opacity="0.8" d="M431.364 29.481C428.327 23.6791 421.734 20.7614 413.807 21.4117C407.131 21.9618 401.223 28.7808 401.924 32.4487C402.625 36.1333 408.232 37.6838 409.251 38.9675L404.628 42.3187C402.324 43.9859 401.874 47.237 403.626 49.4711C405.579 51.9385 408.132 54.5227 409.634 56.34C422.419 56.0066 431.882 51.1383 435.286 46.4367C434.068 40.468 434.385 35.2496 431.347 29.4644L431.364 29.481Z" fill="white"/>
<path d="M425.09 33.0801C427.627 39.5823 424.422 46.9014 417.913 49.4356C411.404 51.9698 404.078 48.7687 401.541 42.2665C399.004 35.7644 402.208 28.4453 408.717 25.9111C415.226 23.3769 422.553 26.578 425.09 33.0801Z" fill="#263238"/>
<path d="M533.468 183.328C533.285 177.843 533.051 178.393 532.884 173.725C532.784 170.89 532.767 167.739 532.751 165.022C532.734 162.371 530.848 160.087 528.244 159.553C526.025 159.103 523.822 158.686 521.602 158.203C518.715 157.586 515.877 156.936 513.04 156.102C510.854 155.469 508.668 154.768 506.531 153.985C504.228 153.151 501.958 152.251 499.705 151.284C497.068 150.15 494.481 148.95 491.895 147.716C489.007 146.332 486.153 144.915 483.316 143.465C472.334 125.292 472.101 113.338 460.301 99.2832L435 110.72C435 110.72 453.592 143.665 466.243 157.636C473.536 165.672 484.968 169.307 495.166 171.924C502.526 173.825 509.986 175.275 517.446 176.642C520.35 177.176 523.505 177.376 526.008 179.11C527.977 180.477 528.995 182.611 529.58 184.862C529.696 185.329 529.796 185.795 529.88 186.262C530.147 187.663 533.552 186.612 533.435 183.295L533.468 183.328Z" fill="#4895EF"/>
<path opacity="0.8" d="M533.468 183.328C533.285 177.843 533.051 178.393 532.884 173.725C532.784 170.89 532.767 167.739 532.751 165.022C532.734 162.371 530.848 160.087 528.244 159.553C526.025 159.103 523.822 158.686 521.602 158.203C518.715 157.586 515.877 156.936 513.04 156.102C510.854 155.469 508.668 154.768 506.531 153.985C504.228 153.151 501.958 152.251 499.705 151.284C497.068 150.15 494.481 148.95 491.895 147.716C489.007 146.332 486.153 144.915 483.316 143.465C472.334 125.292 472.101 113.338 460.301 99.2832L435 110.72C435 110.72 453.592 143.665 466.243 157.636C473.536 165.672 484.968 169.307 495.166 171.924C502.526 173.825 509.986 175.275 517.446 176.642C520.35 177.176 523.505 177.376 526.008 179.11C527.977 180.477 528.995 182.611 529.58 184.862C529.696 185.329 529.796 185.795 529.88 186.262C530.147 187.663 533.552 186.612 533.435 183.295L533.468 183.328Z" fill="white"/>
<path opacity="0.3" d="M520.635 157.986C519.633 157.77 518.632 157.553 517.614 157.303C517.697 163.055 514.994 173.008 513.992 176.009C515.044 176.209 516.112 176.409 517.163 176.609C520.101 168.69 520.551 160.32 520.618 157.97L520.635 157.986Z" fill="#4895EF"/>
<path opacity="0.3" d="M532.747 165.006C532.73 162.338 530.861 160.071 528.257 159.537C527.74 159.437 527.189 159.321 526.672 159.221C526.789 160.788 527.757 162.605 529.392 164.056C530.46 165.023 531.679 165.656 532.78 165.956C532.78 165.623 532.78 165.306 532.764 165.006H532.747Z" fill="#4895EF"/>
<path d="M422.727 33.1816C423.394 35.7158 420.574 38.3667 418.304 36.1827C416.468 34.4154 413.698 31.4311 411.428 30.0306C409.108 28.5801 412.196 26.0459 415.851 27.0296C419.255 27.9466 422.042 30.6641 422.727 33.1816Z" fill="white"/>
<path d="M422.92 113.741C421.751 114.175 423.888 116.176 423.888 116.176C423.888 116.176 447.203 108.19 461.422 99.9701C461.539 98.2529 460.287 97.3359 460.287 97.3359C460.287 97.3359 442.98 106.339 422.903 113.741H422.92Z" fill="#4895EF"/>
<path opacity="0.5" d="M422.92 113.741C421.751 114.175 423.888 116.176 423.888 116.176C423.888 116.176 447.203 108.19 461.422 99.9701C461.539 98.2529 460.287 97.3359 460.287 97.3359C460.287 97.3359 442.98 106.339 422.903 113.741H422.92Z" fill="white"/>
<path d="M440.107 44.8853C444.714 47.2027 449.036 49.6702 453.376 52.3878C455.528 53.7383 457.681 55.1387 459.784 56.6392C461.921 58.1064 464.007 59.6569 466.126 61.4075L466.911 62.0577L467.895 62.9413C468.596 63.5582 469.114 64.1251 469.631 64.6919C470.165 65.2754 470.616 65.8423 471.05 66.4092C471.5 66.976 471.934 67.5429 472.335 68.0931C473.987 70.3105 475.339 72.5612 476.657 74.7953C479.228 79.3302 481.447 83.8483 483.283 88.7166C484.101 90.884 482.999 93.3015 480.83 94.1184C479.194 94.7353 477.425 94.2685 476.29 93.0681L476.207 92.9847C472.852 89.4335 469.631 85.699 466.393 82.2145C463.222 78.7466 459.868 75.1954 457.147 73.6449C453.359 71.2775 449.136 68.9433 444.947 66.6259L432.33 59.6236H432.297C428.258 57.3728 426.806 52.3044 429.042 48.2698C431.229 44.3518 436.119 42.868 440.107 44.8686V44.8853Z" fill="#4895EF"/>
<path opacity="0.8" d="M440.107 44.8853C444.714 47.2027 449.036 49.6702 453.376 52.3878C455.528 53.7383 457.681 55.1387 459.784 56.6392C461.921 58.1064 464.007 59.6569 466.126 61.4075L466.911 62.0577L467.895 62.9413C468.596 63.5582 469.114 64.1251 469.631 64.6919C470.165 65.2754 470.616 65.8423 471.05 66.4092C471.5 66.976 471.934 67.5429 472.335 68.0931C473.987 70.3105 475.339 72.5612 476.657 74.7953C479.228 79.3302 481.447 83.8483 483.283 88.7166C484.101 90.884 482.999 93.3015 480.83 94.1184C479.194 94.7353 477.425 94.2685 476.29 93.0681L476.207 92.9847C472.852 89.4335 469.631 85.699 466.393 82.2145C463.222 78.7466 459.868 75.1954 457.147 73.6449C453.359 71.2775 449.136 68.9433 444.947 66.6259L432.33 59.6236H432.297C428.258 57.3728 426.806 52.3044 429.042 48.2698C431.229 44.3518 436.119 42.868 440.107 44.8686V44.8853Z" fill="white"/>
<path d="M487.287 96.8707L485.869 93.3195C485.869 93.3195 485.084 88.7847 482.247 87.5176L473.836 88.8347L474.136 89.5683C474.92 91.2855 474.32 94.2865 473.569 96.7207C472.818 99.1715 474.103 99.4549 475.154 98.9881C475.772 98.7213 476.339 97.6376 476.99 96.4706C477.29 97.0708 477.641 97.671 478.041 98.2212L480.094 101.039C480.979 102.256 482.664 102.573 483.933 101.756L486.186 100.305C487.337 99.5716 487.805 98.1211 487.304 96.854L487.287 96.8707Z" fill="#4895EF"/>
<path opacity="0.8" d="M487.287 96.8707L485.869 93.3195C485.869 93.3195 485.084 88.7847 482.247 87.5176L473.836 88.8347L474.136 89.5683C474.92 91.2855 474.32 94.2865 473.569 96.7207C472.818 99.1715 474.103 99.4549 475.154 98.9881C475.772 98.7213 476.339 97.6376 476.99 96.4706C477.29 97.0708 477.641 97.671 478.041 98.2212L480.094 101.039C480.979 102.256 482.664 102.573 483.933 101.756L486.186 100.305C487.337 99.5716 487.805 98.1211 487.304 96.854L487.287 96.8707Z" fill="white"/>
<path opacity="0.3" d="M433.06 64.0566L431.024 64.2234L418.523 94.3668C419.258 94.4168 419.925 94.3668 420.56 94.2001C420.56 94.2001 436.849 88.1314 441.772 85.914C438.451 79.045 433.043 64.0566 433.043 64.0566H433.06Z" fill="#4895EF"/>
<path d="M410.259 71.9584C410.96 77.3936 415.032 88.9308 418.537 94.3659C424.645 92.2652 434.826 88.2972 439.749 86.0798C436.428 79.2109 432.94 69.741 431.021 64.2225C425.763 64.5726 414.314 68.8907 410.242 71.9751L410.259 71.9584Z" fill="white"/>
<path opacity="0.3" d="M422.654 78.4793C421.969 80.7467 419.566 82.0472 417.296 81.3636C415.026 80.6801 413.725 78.2792 414.409 76.0118C415.093 73.7444 417.497 72.444 419.766 73.1275C422.036 73.8111 423.338 76.2119 422.654 78.4793Z" fill="#4895EF"/>
<path opacity="0.6" d="M425.855 72.7433C425.638 73.4936 424.853 73.9104 424.102 73.6937C423.351 73.4769 422.934 72.6933 423.151 71.9431C423.368 71.1928 424.152 70.776 424.903 70.9928C425.654 71.2095 426.072 71.9931 425.855 72.7433Z" fill="#4895EF"/>
<path opacity="0.6" d="M429.573 71.2922C429.357 72.0424 428.572 72.4592 427.821 72.2425C427.07 72.0258 426.653 71.2422 426.87 70.4919C427.087 69.7417 427.888 69.3248 428.622 69.5416C429.373 69.7583 429.79 70.5419 429.573 71.2922Z" fill="#4895EF"/>
<path opacity="0.5" d="M434.826 84.2824L419.388 90.3678L418.453 87.3334L433.891 81.248L434.826 84.2824Z" fill="#4895EF"/>
<path opacity="0.2" d="M349.656 315.991C349.323 328.561 348.388 338.215 346.853 344.917C344.883 353.486 341.829 359.755 337.673 363.723C333.534 367.691 328.628 369.675 322.97 369.675C314.391 369.675 307.832 365.007 303.326 355.654C302.592 354.137 301.924 352.403 301.307 350.469C291.777 358.655 282.898 367.591 274.737 377.194L265.875 387.631C270.665 392.483 276.106 396.467 282.181 399.619C292.578 404.987 306.214 407.688 323.103 407.688C326.074 407.688 328.945 407.605 331.732 407.438C341.946 392.333 350.407 376.094 356.933 359.055L381.717 294.5L349.656 315.991Z" fill="black"/>
<path d="M126.227 404.004C135.573 413.341 155.433 433.181 155.433 433.181L237.229 356.205C209.073 345.518 154.215 376.045 126.227 404.004Z" fill="#263238"/>
<path d="M228.082 505.754C218.736 496.418 198.875 476.578 198.875 476.578L275.931 394.867C286.629 422.993 256.07 477.795 228.082 505.754Z" fill="#263238"/>
<path d="M339.871 321.876L371.731 260.506L310.297 292.333C290.554 302.553 272.345 315.474 256.156 330.696L151.43 429.179L202.883 480.579L301.469 375.961C316.706 359.789 329.624 341.583 339.871 321.876Z" fill="#4895EF"/>
<path opacity="0.6" d="M339.871 321.876L371.731 260.506L310.297 292.333C290.554 302.553 272.345 315.474 256.156 330.696L151.43 429.179L202.883 480.579L301.469 375.961C316.706 359.789 329.624 341.583 339.871 321.876Z" fill="white"/>
<path d="M274.459 379.194C286.35 379.194 295.989 369.565 295.989 357.687C295.989 345.809 286.35 336.18 274.459 336.18C262.569 336.18 252.93 345.809 252.93 357.687C252.93 369.565 262.569 379.194 274.459 379.194Z" fill="white"/>
<path d="M274.453 371.508C282.094 371.508 288.288 365.32 288.288 357.687C288.288 350.053 282.094 343.865 274.453 343.865C266.812 343.865 260.617 350.053 260.617 357.687C260.617 365.32 266.812 371.508 274.453 371.508Z" fill="#4895EF"/>
<path opacity="0.3" d="M220.275 462.123L169.906 411.806L211.146 373.01L259.112 420.926L220.275 462.123Z" fill="#4895EF"/>
<path d="M137.635 450.119C99.9163 453.187 87.4158 477.311 83.1433 509.372C80.9737 525.728 80.0057 542.267 66.2535 551.853C62.4316 554.504 64.3342 560.439 68.9739 560.289C119.61 558.705 143.226 533.947 146.196 523.577C145.178 530.129 143.693 535.314 142.041 539.366C140.338 543.55 144.945 547.418 148.767 545.017C162.986 536.114 180.81 519.742 181.995 493.2C171.481 478.445 137.635 450.119 137.635 450.119Z" fill="#4895EF"/>
<path opacity="0.2" d="M137.635 450.119C99.9163 453.187 87.4158 477.311 83.1433 509.372C80.9737 525.728 80.0057 542.267 66.2535 551.853C62.4316 554.504 64.3342 560.439 68.9739 560.289C119.61 558.705 143.226 533.947 146.196 523.577C145.178 530.129 143.693 535.314 142.041 539.366C140.338 543.55 144.945 547.418 148.767 545.017C162.986 536.114 180.81 519.742 181.995 493.2C171.481 478.445 137.635 450.119 137.635 450.119Z" fill="white"/>
<path d="M187.782 504.605L127.383 444.251L159.56 437.299L194.758 472.461L187.782 504.605Z" fill="#4895EF"/>
</svg>
