<svg width="202" height="207" viewBox="0 0 202 207" fill="none" xmlns="http://www.w3.org/2000/svg">
<path id="Union" opacity="0.3" fill-rule="evenodd" clip-rule="evenodd" d="M79.8419 46.0907L79.1826 0.890625L201.912 74.762L161.661 95.3382L182.116 107.65L141.866 128.226L142.525 173.426L122.07 161.115L122.729 206.315L0.00027694 132.443L40.2507 111.867L19.7959 99.5551L60.0463 78.9788L59.387 33.7788L79.8419 46.0907ZM137.864 39.198L81.8078 5.4576L82.4231 47.6443L100.297 58.4026L137.864 39.198ZM159.08 93.7846L141.206 83.0263L140.591 40.8396L196.647 74.5801L159.08 93.7846ZM156.397 95.1563L141.494 102.774L141.25 86.0397L156.397 95.1563ZM141.536 105.626L158.978 96.71L176.851 107.468L141.824 125.374L141.536 105.626ZM138.955 104.073L138.669 84.486L120.795 73.7278L121.369 113.063L138.955 104.073ZM121.411 115.914L138.996 106.925L139.284 126.673L121.699 135.663L121.411 115.914ZM118.83 114.361L118.253 74.8646L83.0823 92.8443L83.6584 132.341L118.83 114.361ZM83.0407 89.9924L118.068 72.0862L100.195 61.3279L82.7527 70.2443L83.0407 89.9924ZM80.2131 71.5426L80.5011 91.2907L62.9155 100.281L62.6275 80.5325L80.2131 71.5426ZM80.1715 68.6907L62.5859 77.6805L62.0122 38.3458L79.8858 49.104L80.1715 68.6907ZM82.7111 67.3924L82.467 50.6576L97.6133 59.7743L82.7111 67.3924ZM80.5427 94.1426L81.1164 133.477L63.2428 122.719L62.9571 103.132L80.5427 94.1426ZM83.8437 135.119L118.871 117.213L119.159 136.961L101.717 145.877L83.8437 135.119ZM63.2867 125.732L63.8628 165.229L99.034 147.249L63.2867 125.732ZM138.049 41.9765L138.625 81.4727L102.878 59.9562L138.049 41.9765ZM60.0879 81.8307L60.3759 101.579L42.9341 110.495L25.0604 99.737L60.0879 81.8307ZM60.6616 121.166L60.4175 104.431L45.5153 112.049L60.6616 121.166ZM5.26484 132.625L42.8319 113.421L60.7055 124.179L61.3208 166.366L5.26484 132.625ZM119.489 159.561L120.104 201.748L64.0481 168.007L101.615 148.803L119.489 159.561ZM119.201 139.813L119.445 156.548L104.299 147.431L119.201 139.813ZM122.026 158.101L121.74 138.514L139.326 129.525L139.9 168.859L122.026 158.101Z" fill="url(#paint0_radial_442_373)"/>
<defs>
<radialGradient id="paint0_radial_442_373" cx="0" cy="0" r="1" gradientUnits="userSpaceOnUse" gradientTransform="translate(99.7603 97.4192) rotate(89.5192) scale(161.413 150.631)">
<stop stop-color="#434343"/>
<stop offset="1" stop-color="#434343" stop-opacity="0"/>
</radialGradient>
</defs>
</svg>
