<svg width="36" height="37" viewBox="0 0 36 37" fill="none" xmlns="http://www.w3.org/2000/svg">
<g id="3d report" clip-path="url(#clip0_675_566)">
<g id="Group">
<g id="Group_2">
<path id="Vector" d="M29.2655 36.3705H6.73427C4.93821 36.3705 3.48218 34.9144 3.48218 33.1184V4.7726C3.48218 2.97654 4.93821 1.52051 6.73427 1.52051H29.2655C31.0616 1.52051 32.5176 2.97654 32.5176 4.7726V33.1185C32.5175 34.9144 31.0616 36.3705 29.2655 36.3705Z" fill="url(#paint0_linear_675_566)"/>
<path id="Vector_2" d="M29.232 4.35718L6.92859 33.4781L9.82054 36.37H29.2653C31.0613 36.37 32.5173 34.914 32.5173 33.118V7.6426L29.232 4.35718Z" fill="url(#paint1_linear_675_566)"/>
<path id="Vector_3" d="M3.48218 19.3755V33.1187C3.48218 34.9148 4.93821 36.3708 6.73427 36.3708H29.2655C31.0616 36.3708 32.5176 34.9148 32.5176 33.1187V19.3755H3.48218Z" fill="url(#paint2_linear_675_566)"/>
<path id="Vector_4" d="M29.2656 1.52051H13.1265V36.3705H29.2656C31.0616 36.3705 32.5177 34.9144 32.5177 33.1184V4.7726C32.5176 2.97654 31.0616 1.52051 29.2656 1.52051Z" fill="url(#paint3_linear_675_566)"/>
<path id="Vector_5" d="M29.2657 1.52051H19.8749V6.64636H32.5178V4.77253C32.5178 2.97647 31.0618 1.52051 29.2657 1.52051Z" fill="url(#paint4_linear_675_566)"/>
</g>
<g id="Group_3">
<path id="Vector_6" d="M27.1007 34.2598H8.89957C7.30988 34.2598 6.02112 32.971 6.02112 31.3813V6.2919C6.02112 4.70221 7.30988 3.41345 8.89957 3.41345H27.1007C28.6904 3.41345 29.9791 4.70221 29.9791 6.2919V31.3813C29.9791 32.9711 28.6904 34.2598 27.1007 34.2598Z" fill="url(#paint5_linear_675_566)"/>
<path id="Vector_7" d="M6.02112 19.2173V31.3816C6.02112 32.9714 7.30988 34.2601 8.89957 34.2601H27.1007C28.6904 34.2601 29.9791 32.9713 29.9791 31.3816V19.2173H6.02112Z" fill="url(#paint6_linear_675_566)"/>
<path id="Vector_8" d="M27.1009 3.41345H14.5575V34.2598H27.1009C28.6906 34.2598 29.9793 32.971 29.9793 31.3813V6.2919C29.9793 4.70221 28.6907 3.41345 27.1009 3.41345Z" fill="url(#paint7_linear_675_566)"/>
</g>
<path id="Vector_9" d="M27.2806 10.4634L19.3008 18.4431C18.8897 18.8543 18.2231 18.8543 17.8119 18.4431L13.3296 13.9608C12.9896 13.6208 12.441 13.6127 12.0911 13.9424L8.71875 17.1208L25.8578 34.2598H27.1003C28.69 34.2598 29.9787 32.971 29.9787 31.3813V13.1616L27.2806 10.4634Z" fill="url(#paint8_linear_675_566)"/>
<path id="Vector_10" d="M14.1218 3.26514H21.8781V6.77148H14.1218V3.26514Z" fill="url(#paint9_linear_675_566)"/>
<path id="Vector_11" d="M14.1218 3.26514H21.8781V6.77148H14.1218V3.26514Z" fill="url(#paint10_linear_675_566)"/>
<path id="Vector_12" d="M29.9786 6.2919C29.9786 4.70221 28.6899 3.41345 27.1002 3.41345H21.8511V5.04913C21.8511 6.10298 20.9968 6.95727 19.9429 6.95727H14.1482L29.9786 22.7877V6.2919Z" fill="url(#paint11_linear_675_566)"/>
<g id="Group_4">
<path id="Vector_13" d="M20.4643 7.49098H15.5355C14.3925 7.49098 13.4626 6.5611 13.4626 5.41824V2.7522H22.5372V5.41817C22.5371 6.5611 21.6072 7.49098 20.4643 7.49098ZM14.5173 3.80688V5.41817C14.5173 5.97954 14.974 6.43622 15.5354 6.43622H20.4642C21.0256 6.43622 21.4823 5.97954 21.4823 5.41817V3.80688H14.5173Z" fill="url(#paint12_linear_675_566)"/>
</g>
<g id="Group_5">
<path id="Vector_14" d="M20.4643 7.49098H15.5355C14.3925 7.49098 13.4626 6.5611 13.4626 5.41824V2.7522H22.5372V5.41817C22.5371 6.5611 21.6072 7.49098 20.4643 7.49098ZM14.5173 3.80688V5.41817C14.5173 5.97954 14.974 6.43622 15.5354 6.43622H20.4642C21.0256 6.43622 21.4823 5.97954 21.4823 5.41817V3.80688H14.5173Z" fill="url(#paint13_linear_675_566)"/>
</g>
<g id="Group_6">
<path id="Vector_15" d="M20.4643 7.49098H15.5355C14.3925 7.49098 13.4626 6.5611 13.4626 5.41824V2.7522H22.5372V5.41817C22.5371 6.5611 21.6072 7.49098 20.4643 7.49098ZM14.5173 3.80688V5.41817C14.5173 5.97954 14.974 6.43622 15.5354 6.43622H20.4642C21.0256 6.43622 21.4823 5.97954 21.4823 5.41817V3.80688H14.5173Z" fill="url(#paint14_linear_675_566)"/>
</g>
<path id="Vector_16" d="M17.9198 3.80688H21.4824V5.41817C21.4824 5.97954 21.0256 6.43622 20.4643 6.43622H17.9198V7.49091H20.4643C21.6072 7.49091 22.5371 6.56103 22.5371 5.41817V2.7522H17.9198V3.80688Z" fill="url(#paint15_linear_675_566)"/>
<g id="Group_7">
<path id="Vector_17" d="M22.08 4.86432H13.9198C13.3039 4.86432 12.8047 4.03885 12.8047 3.02065C12.8047 2.14899 13.1739 1.39636 13.6898 1.21657L14.2776 1.01175C16.7321 0.156401 19.2676 0.156401 21.7221 1.01175L22.31 1.21657C22.8258 1.39636 23.195 2.14892 23.195 3.02065C23.195 4.03892 22.6958 4.86432 22.08 4.86432Z" fill="url(#paint16_linear_675_566)"/>
<path id="Vector_18" d="M22.0802 4.86433C22.6961 4.86433 23.1953 4.03886 23.1953 3.02067C23.1953 2.149 22.8261 1.39638 22.3102 1.21659L21.7225 1.01177C20.4952 0.58406 19.2476 0.370239 18.0001 0.370239V4.86433H22.0802Z" fill="url(#paint17_linear_675_566)"/>
<path id="Vector_19" d="M12.8047 3.02031C12.8047 4.03857 13.3039 4.86397 13.9198 4.86397H22.08C22.6958 4.86397 23.195 4.0385 23.195 3.02031C23.195 2.49043 23.0581 2.00549 22.8352 1.66553H13.1645C12.9417 2.00549 12.8047 2.49043 12.8047 3.02031Z" fill="url(#paint18_linear_675_566)"/>
</g>
<g id="Group_8">
<g id="Group_9">
<path id="Vector_20" d="M26.8651 22.3256H15.3322C15.0831 22.3256 14.8811 22.1237 14.8811 21.8745C14.8811 21.6253 15.083 21.4233 15.3322 21.4233H26.865C27.1141 21.4233 27.3162 21.6253 27.3162 21.8745C27.3162 22.1236 27.1142 22.3256 26.8651 22.3256Z" fill="url(#paint19_linear_675_566)"/>
<path id="Vector_21" d="M26.8651 25.427H15.3322C15.0831 25.427 14.8811 25.2251 14.8811 24.9759C14.8811 24.7268 15.083 24.5248 15.3322 24.5248H26.865C27.1141 24.5248 27.3162 24.7267 27.3162 24.9759C27.3162 25.225 27.1142 25.427 26.8651 25.427Z" fill="url(#paint20_linear_675_566)"/>
<path id="Vector_22" d="M26.8651 28.5285H15.3322C15.0831 28.5285 14.8811 28.3265 14.8811 28.0773C14.8811 27.8282 15.083 27.6262 15.3322 27.6262H26.865C27.1141 27.6262 27.3162 27.8282 27.3162 28.0773C27.3162 28.3265 27.1142 28.5285 26.8651 28.5285Z" fill="url(#paint21_linear_675_566)"/>
<path id="Vector_23" d="M26.8651 31.631H15.3322C15.0831 31.631 14.8811 31.4291 14.8811 31.1799C14.8811 30.9308 15.083 30.7288 15.3322 30.7288H26.865C27.1141 30.7288 27.3162 30.9307 27.3162 31.1799C27.3162 31.4291 27.1142 31.631 26.8651 31.631Z" fill="url(#paint22_linear_675_566)"/>
</g>
<path id="Vector_24" d="M11.8685 25.4273H9.50286C9.05047 25.4273 8.68372 25.0606 8.68372 24.6082V22.2426C8.68372 21.7902 9.05047 21.4235 9.50286 21.4235H11.8685C12.3208 21.4235 12.6876 21.7902 12.6876 22.2426V24.6082C12.6876 25.0606 12.3208 25.4273 11.8685 25.4273Z" fill="url(#paint23_linear_675_566)"/>
</g>
<path id="Vector_25" d="M28.4613 33.9181L14.9118 20.3687L10.297 24.6193L19.9375 34.2597H27.1006C27.5929 34.2597 28.0561 34.1359 28.4613 33.9181Z" fill="url(#paint24_linear_675_566)"/>
<g id="Group_10">
<g id="Group_11">
<path id="Vector_26" d="M10.8517 24.8487C10.6421 24.8487 10.445 24.767 10.2967 24.6188L8.83805 23.16C8.63211 22.954 8.63211 22.6202 8.83805 22.4142C9.044 22.2084 9.37791 22.2084 9.58379 22.4142L10.8517 23.6822L14.1658 20.3682C14.3717 20.1623 14.7056 20.1623 14.9115 20.3682C15.1175 20.5742 15.1175 20.908 14.9115 21.114L11.4066 24.6188C11.2585 24.767 11.0614 24.8487 10.8517 24.8487Z" fill="url(#paint25_linear_675_566)"/>
</g>
<g id="Group_12">
<path id="Vector_27" d="M10.8517 24.8487C10.6421 24.8487 10.445 24.767 10.2967 24.6188L8.83805 23.16C8.63211 22.954 8.63211 22.6202 8.83805 22.4142C9.044 22.2084 9.37791 22.2084 9.58379 22.4142L10.8517 23.6822L14.1658 20.3682C14.3717 20.1623 14.7056 20.1623 14.9115 20.3682C15.1175 20.5742 15.1175 20.908 14.9115 21.114L11.4066 24.6188C11.2585 24.767 11.0614 24.8487 10.8517 24.8487Z" fill="url(#paint26_linear_675_566)"/>
</g>
</g>
<g id="Group_13">
<g id="Group_14">
<path id="Vector_28" d="M18.5639 19.3669C18.1879 19.3669 17.8119 19.2238 17.5257 18.9376L12.9088 14.3208C12.7473 14.1592 12.4855 14.1592 12.324 14.3208L9.84814 16.7967C9.64219 17.0026 9.30828 17.0026 9.10233 16.7967C8.89639 16.5907 8.89639 16.2568 9.10233 16.0509L11.5782 13.575C12.1507 13.0025 13.0822 13.0026 13.6546 13.575L18.2715 18.1918C18.433 18.3533 18.6949 18.3533 18.8564 18.1918L26.1513 10.8969C26.3572 10.6909 26.6911 10.6909 26.8971 10.8969C27.103 11.1028 27.103 11.4367 26.8971 11.6427L19.6022 18.9376C19.3159 19.2238 18.9399 19.3669 18.5639 19.3669Z" fill="url(#paint27_linear_675_566)"/>
</g>
<path id="Vector_29" d="M26.8971 11.6427C27.1031 11.4368 27.1031 11.1028 26.8971 10.8969C26.6912 10.6909 26.3573 10.6909 26.1513 10.8969L18.8564 18.1918C18.6949 18.3533 18.4331 18.3533 18.2716 18.1918L16.7381 16.6584L15.9923 17.4042L17.5258 18.9377C17.8121 19.2239 18.188 19.3669 18.5641 19.3669C18.94 19.3669 19.3161 19.2239 19.6023 18.9377L26.8971 11.6427Z" fill="url(#paint28_linear_675_566)"/>
<g id="Group_15">
<g id="Group_16">
<g id="Group_17">
<path id="Vector_30" d="M9.51648 17.4508C10.1394 17.4508 10.6443 16.9459 10.6443 16.323C10.6443 15.7001 10.1394 15.1952 9.51648 15.1952C8.89361 15.1952 8.38867 15.7001 8.38867 16.323C8.38867 16.9459 8.89361 17.4508 9.51648 17.4508Z" fill="url(#paint29_linear_675_566)"/>
<path id="Vector_31" d="M8.38867 16.323C8.38867 16.9458 8.89359 17.4508 9.51648 17.4508C10.1393 17.4508 10.6443 16.9459 10.6443 16.323C10.6443 16.188 10.6205 16.0587 10.5771 15.9388H8.45589C8.41244 16.0587 8.38867 16.1881 8.38867 16.323Z" fill="url(#paint30_linear_675_566)"/>
<path id="Vector_32" d="M8.71878 17.1207C9.15922 17.5612 9.87332 17.5612 10.3137 17.1207C10.7541 16.6803 10.7541 15.9662 10.3137 15.5258C10.2183 15.4304 10.1101 15.3558 9.99454 15.3018L8.49463 16.8017C8.54877 16.9171 8.62337 17.0253 8.71878 17.1207Z" fill="url(#paint31_linear_675_566)"/>
</g>
</g>
<g id="Group_18">
<g id="Group_19">
<path id="Vector_33" d="M26.4833 12.3883C27.1062 12.3883 27.6111 11.8834 27.6111 11.2605C27.6111 10.6376 27.1062 10.1327 26.4833 10.1327C25.8604 10.1327 25.3555 10.6376 25.3555 11.2605C25.3555 11.8834 25.8604 12.3883 26.4833 12.3883Z" fill="url(#paint32_linear_675_566)"/>
<path id="Vector_34" d="M25.3556 11.2605C25.3556 11.8833 25.8605 12.3883 26.4834 12.3883C27.1062 12.3883 27.6112 11.8834 27.6112 11.2605C27.6112 11.1255 27.5874 10.9962 27.544 10.8763H25.4228C25.3794 10.9962 25.3556 11.1256 25.3556 11.2605Z" fill="url(#paint33_linear_675_566)"/>
<path id="Vector_35" d="M25.6856 12.0582C26.126 12.4987 26.8401 12.4987 27.2805 12.0582C27.7209 11.6178 27.7209 10.9037 27.2805 10.4633C27.1851 10.3679 27.0769 10.2933 26.9613 10.2393L25.4614 11.7392C25.5156 11.8546 25.5902 11.9628 25.6856 12.0582Z" fill="url(#paint34_linear_675_566)"/>
</g>
</g>
</g>
</g>
</g>
</g>
<defs>
<linearGradient id="paint0_linear_675_566" x1="9.74104" y1="10.6867" x2="32.6025" y2="33.5481" gradientUnits="userSpaceOnUse">
<stop stop-color="#B3DAFE"/>
<stop offset="1" stop-color="#0182FC"/>
</linearGradient>
<linearGradient id="paint1_linear_675_566" x1="27.885" y1="28.3366" x2="14.8529" y2="15.9059" gradientUnits="userSpaceOnUse">
<stop stop-color="#314DC9" stop-opacity="0"/>
<stop offset="0.2761" stop-color="#304BC4" stop-opacity="0.276"/>
<stop offset="0.5628" stop-color="#2B45B8" stop-opacity="0.563"/>
<stop offset="0.8535" stop-color="#243BA3" stop-opacity="0.854"/>
<stop offset="1" stop-color="#1F3596"/>
</linearGradient>
<linearGradient id="paint2_linear_675_566" x1="17.9998" y1="31.0577" x2="17.9998" y2="36.5899" gradientUnits="userSpaceOnUse">
<stop stop-color="#314DC9" stop-opacity="0"/>
<stop offset="0.2761" stop-color="#304BC4" stop-opacity="0.276"/>
<stop offset="0.5628" stop-color="#2B45B8" stop-opacity="0.563"/>
<stop offset="0.8535" stop-color="#243BA3" stop-opacity="0.854"/>
<stop offset="1" stop-color="#1F3596"/>
</linearGradient>
<linearGradient id="paint3_linear_675_566" x1="26.1066" y1="18.9455" x2="33.1133" y2="18.9455" gradientUnits="userSpaceOnUse">
<stop stop-color="#314DC9" stop-opacity="0"/>
<stop offset="0.2761" stop-color="#304BC4" stop-opacity="0.276"/>
<stop offset="0.5628" stop-color="#2B45B8" stop-opacity="0.563"/>
<stop offset="0.8535" stop-color="#243BA3" stop-opacity="0.854"/>
<stop offset="1" stop-color="#1F3596"/>
</linearGradient>
<linearGradient id="paint4_linear_675_566" x1="25.6642" y1="4.08347" x2="21.8535" y2="4.08347" gradientUnits="userSpaceOnUse">
<stop stop-color="#314DC9" stop-opacity="0"/>
<stop offset="0.2761" stop-color="#304BC4" stop-opacity="0.276"/>
<stop offset="0.5628" stop-color="#2B45B8" stop-opacity="0.563"/>
<stop offset="0.8535" stop-color="#243BA3" stop-opacity="0.854"/>
<stop offset="1" stop-color="#1F3596"/>
</linearGradient>
<linearGradient id="paint5_linear_675_566" x1="10.9295" y1="11.766" x2="30.5018" y2="31.3383" gradientUnits="userSpaceOnUse">
<stop stop-color="#F5FBFF"/>
<stop offset="1" stop-color="#DBD5EF"/>
</linearGradient>
<linearGradient id="paint6_linear_675_566" x1="18.0001" y1="29.5574" x2="18.0001" y2="34.4541" gradientUnits="userSpaceOnUse">
<stop stop-color="#DBD5EF" stop-opacity="0"/>
<stop offset="0.2853" stop-color="#D9D2EE" stop-opacity="0.285"/>
<stop offset="0.4739" stop-color="#D4C9E9" stop-opacity="0.474"/>
<stop offset="0.6346" stop-color="#CBBAE2" stop-opacity="0.635"/>
<stop offset="0.7795" stop-color="#BFA5D7" stop-opacity="0.78"/>
<stop offset="0.9126" stop-color="#AF8ACA" stop-opacity="0.913"/>
<stop offset="1" stop-color="#A274BF"/>
</linearGradient>
<linearGradient id="paint7_linear_675_566" x1="24.8807" y1="18.8366" x2="30.4531" y2="18.8366" gradientUnits="userSpaceOnUse">
<stop stop-color="#DBD5EF" stop-opacity="0"/>
<stop offset="0.2853" stop-color="#D9D2EE" stop-opacity="0.285"/>
<stop offset="0.4739" stop-color="#D4C9E9" stop-opacity="0.474"/>
<stop offset="0.6346" stop-color="#CBBAE2" stop-opacity="0.635"/>
<stop offset="0.7795" stop-color="#BFA5D7" stop-opacity="0.78"/>
<stop offset="0.9126" stop-color="#AF8ACA" stop-opacity="0.913"/>
<stop offset="1" stop-color="#A274BF"/>
</linearGradient>
<linearGradient id="paint8_linear_675_566" x1="21.304" y1="21.5124" x2="18.3968" y2="12.039" gradientUnits="userSpaceOnUse">
<stop stop-color="#DBD5EF" stop-opacity="0"/>
<stop offset="0.2853" stop-color="#D9D2EE" stop-opacity="0.285"/>
<stop offset="0.4739" stop-color="#D4C9E9" stop-opacity="0.474"/>
<stop offset="0.6346" stop-color="#CBBAE2" stop-opacity="0.635"/>
<stop offset="0.7795" stop-color="#BFA5D7" stop-opacity="0.78"/>
<stop offset="0.9126" stop-color="#AF8ACA" stop-opacity="0.913"/>
<stop offset="1" stop-color="#A274BF"/>
</linearGradient>
<linearGradient id="paint9_linear_675_566" x1="17.9999" y1="6.37049" x2="17.9999" y2="4.75949" gradientUnits="userSpaceOnUse">
<stop stop-color="#DBD5EF" stop-opacity="0"/>
<stop offset="0.2853" stop-color="#D9D2EE" stop-opacity="0.285"/>
<stop offset="0.4739" stop-color="#D4C9E9" stop-opacity="0.474"/>
<stop offset="0.6346" stop-color="#CBBAE2" stop-opacity="0.635"/>
<stop offset="0.7795" stop-color="#BFA5D7" stop-opacity="0.78"/>
<stop offset="0.9126" stop-color="#AF8ACA" stop-opacity="0.913"/>
<stop offset="1" stop-color="#A274BF"/>
</linearGradient>
<linearGradient id="paint10_linear_675_566" x1="16.3159" y1="5.01831" x2="14.5113" y2="5.01831" gradientUnits="userSpaceOnUse">
<stop stop-color="#DBD5EF" stop-opacity="0"/>
<stop offset="0.2853" stop-color="#D9D2EE" stop-opacity="0.285"/>
<stop offset="0.4739" stop-color="#D4C9E9" stop-opacity="0.474"/>
<stop offset="0.6346" stop-color="#CBBAE2" stop-opacity="0.635"/>
<stop offset="0.7795" stop-color="#BFA5D7" stop-opacity="0.78"/>
<stop offset="0.9126" stop-color="#AF8ACA" stop-opacity="0.913"/>
<stop offset="1" stop-color="#A274BF"/>
</linearGradient>
<linearGradient id="paint11_linear_675_566" x1="24.8889" y1="10.9955" x2="20.7287" y2="3.9782" gradientUnits="userSpaceOnUse">
<stop stop-color="#DBD5EF" stop-opacity="0"/>
<stop offset="0.2853" stop-color="#D9D2EE" stop-opacity="0.285"/>
<stop offset="0.4739" stop-color="#D4C9E9" stop-opacity="0.474"/>
<stop offset="0.6346" stop-color="#CBBAE2" stop-opacity="0.635"/>
<stop offset="0.7795" stop-color="#BFA5D7" stop-opacity="0.78"/>
<stop offset="0.9126" stop-color="#AF8ACA" stop-opacity="0.913"/>
<stop offset="1" stop-color="#A274BF"/>
</linearGradient>
<linearGradient id="paint12_linear_675_566" x1="17.9998" y1="6.55435" x2="17.9998" y2="7.45653" gradientUnits="userSpaceOnUse">
<stop stop-color="#5A5A5A"/>
<stop offset="1" stop-color="#444444"/>
</linearGradient>
<linearGradient id="paint13_linear_675_566" x1="17.9998" y1="6.65454" x2="17.9998" y2="7.35626" gradientUnits="userSpaceOnUse">
<stop stop-color="#433F43" stop-opacity="0"/>
<stop offset="1" stop-color="#1A1A1A"/>
</linearGradient>
<linearGradient id="paint14_linear_675_566" x1="17.9998" y1="5.83589" x2="17.9998" y2="4.66631" gradientUnits="userSpaceOnUse">
<stop stop-color="#433F43" stop-opacity="0"/>
<stop offset="1" stop-color="#1A1A1A"/>
</linearGradient>
<linearGradient id="paint15_linear_675_566" x1="21.1138" y1="5.47821" x2="22.3168" y2="5.96274" gradientUnits="userSpaceOnUse">
<stop stop-color="#433F43" stop-opacity="0"/>
<stop offset="1" stop-color="#1A1A1A"/>
</linearGradient>
<linearGradient id="paint16_linear_675_566" x1="17.9999" y1="1.12271" x2="17.9999" y2="4.37157" gradientUnits="userSpaceOnUse">
<stop stop-color="#FEF0AE"/>
<stop offset="1" stop-color="#FAC600"/>
</linearGradient>
<linearGradient id="paint17_linear_675_566" x1="20.8121" y1="3.36843" x2="22.7935" y2="4.3694" gradientUnits="userSpaceOnUse">
<stop stop-color="#FE9738" stop-opacity="0"/>
<stop offset="1" stop-color="#FE9738"/>
</linearGradient>
<linearGradient id="paint18_linear_675_566" x1="17.9999" y1="2.963" x2="17.9999" y2="4.99567" gradientUnits="userSpaceOnUse">
<stop stop-color="#FE9738" stop-opacity="0"/>
<stop offset="1" stop-color="#FE9738"/>
</linearGradient>
<linearGradient id="paint19_linear_675_566" x1="21.0192" y1="10.162" x2="21.1195" y2="24.9485" gradientUnits="userSpaceOnUse">
<stop stop-color="#DBD5EF" stop-opacity="0"/>
<stop offset="0.2853" stop-color="#D9D2EE" stop-opacity="0.285"/>
<stop offset="0.4739" stop-color="#D4C9E9" stop-opacity="0.474"/>
<stop offset="0.6346" stop-color="#CBBAE2" stop-opacity="0.635"/>
<stop offset="0.7795" stop-color="#BFA5D7" stop-opacity="0.78"/>
<stop offset="0.9126" stop-color="#AF8ACA" stop-opacity="0.913"/>
<stop offset="1" stop-color="#A274BF"/>
</linearGradient>
<linearGradient id="paint20_linear_675_566" x1="21.0192" y1="13.2635" x2="21.1195" y2="28.05" gradientUnits="userSpaceOnUse">
<stop stop-color="#DBD5EF" stop-opacity="0"/>
<stop offset="0.2853" stop-color="#D9D2EE" stop-opacity="0.285"/>
<stop offset="0.4739" stop-color="#D4C9E9" stop-opacity="0.474"/>
<stop offset="0.6346" stop-color="#CBBAE2" stop-opacity="0.635"/>
<stop offset="0.7795" stop-color="#BFA5D7" stop-opacity="0.78"/>
<stop offset="0.9126" stop-color="#AF8ACA" stop-opacity="0.913"/>
<stop offset="1" stop-color="#A274BF"/>
</linearGradient>
<linearGradient id="paint21_linear_675_566" x1="21.0192" y1="16.3649" x2="21.1195" y2="31.1514" gradientUnits="userSpaceOnUse">
<stop stop-color="#DBD5EF" stop-opacity="0"/>
<stop offset="0.2853" stop-color="#D9D2EE" stop-opacity="0.285"/>
<stop offset="0.4739" stop-color="#D4C9E9" stop-opacity="0.474"/>
<stop offset="0.6346" stop-color="#CBBAE2" stop-opacity="0.635"/>
<stop offset="0.7795" stop-color="#BFA5D7" stop-opacity="0.78"/>
<stop offset="0.9126" stop-color="#AF8ACA" stop-opacity="0.913"/>
<stop offset="1" stop-color="#A274BF"/>
</linearGradient>
<linearGradient id="paint22_linear_675_566" x1="21.0192" y1="19.4675" x2="21.1195" y2="34.254" gradientUnits="userSpaceOnUse">
<stop stop-color="#DBD5EF" stop-opacity="0"/>
<stop offset="0.2853" stop-color="#D9D2EE" stop-opacity="0.285"/>
<stop offset="0.4739" stop-color="#D4C9E9" stop-opacity="0.474"/>
<stop offset="0.6346" stop-color="#CBBAE2" stop-opacity="0.635"/>
<stop offset="0.7795" stop-color="#BFA5D7" stop-opacity="0.78"/>
<stop offset="0.9126" stop-color="#AF8ACA" stop-opacity="0.913"/>
<stop offset="1" stop-color="#A274BF"/>
</linearGradient>
<linearGradient id="paint23_linear_675_566" x1="3.56039" y1="14.819" x2="12.4824" y2="25.5957" gradientUnits="userSpaceOnUse">
<stop stop-color="#DBD5EF" stop-opacity="0"/>
<stop offset="0.2853" stop-color="#D9D2EE" stop-opacity="0.285"/>
<stop offset="0.4739" stop-color="#D4C9E9" stop-opacity="0.474"/>
<stop offset="0.6346" stop-color="#CBBAE2" stop-opacity="0.635"/>
<stop offset="0.7795" stop-color="#BFA5D7" stop-opacity="0.78"/>
<stop offset="0.9126" stop-color="#AF8ACA" stop-opacity="0.913"/>
<stop offset="1" stop-color="#A274BF"/>
</linearGradient>
<linearGradient id="paint24_linear_675_566" x1="16.7158" y1="26.6053" x2="12.4846" y2="22.3742" gradientUnits="userSpaceOnUse">
<stop stop-color="#DBD5EF" stop-opacity="0"/>
<stop offset="0.2853" stop-color="#D9D2EE" stop-opacity="0.285"/>
<stop offset="0.4739" stop-color="#D4C9E9" stop-opacity="0.474"/>
<stop offset="0.6346" stop-color="#CBBAE2" stop-opacity="0.635"/>
<stop offset="0.7795" stop-color="#BFA5D7" stop-opacity="0.78"/>
<stop offset="0.9126" stop-color="#AF8ACA" stop-opacity="0.913"/>
<stop offset="1" stop-color="#A274BF"/>
</linearGradient>
<linearGradient id="paint25_linear_675_566" x1="11.7615" y1="21.174" x2="12.363" y2="24.3067" gradientUnits="userSpaceOnUse">
<stop stop-color="#BBEC6C"/>
<stop offset="0.2886" stop-color="#ABDC59"/>
<stop offset="0.866" stop-color="#82B32A"/>
<stop offset="1" stop-color="#78A91F"/>
</linearGradient>
<linearGradient id="paint26_linear_675_566" x1="12.48" y1="22.3693" x2="13.0732" y2="22.9625" gradientUnits="userSpaceOnUse">
<stop stop-color="#334C0F" stop-opacity="0"/>
<stop offset="0.3197" stop-color="#344C12" stop-opacity="0.32"/>
<stop offset="0.5654" stop-color="#374A1C" stop-opacity="0.565"/>
<stop offset="0.7856" stop-color="#3C482C" stop-opacity="0.786"/>
<stop offset="0.9909" stop-color="#444443" stop-opacity="0.991"/>
<stop offset="1" stop-color="#444444"/>
</linearGradient>
<linearGradient id="paint27_linear_675_566" x1="17.1512" y1="11.0892" x2="19.7576" y2="19.5602" gradientUnits="userSpaceOnUse">
<stop stop-color="#FFA1AE"/>
<stop offset="1" stop-color="#FF4565"/>
</linearGradient>
<linearGradient id="paint28_linear_675_566" x1="22.108" y1="14.8138" x2="22.8277" y2="15.5334" gradientUnits="userSpaceOnUse">
<stop stop-color="#FE0364" stop-opacity="0"/>
<stop offset="0.2343" stop-color="#F90362" stop-opacity="0.234"/>
<stop offset="0.5173" stop-color="#EA035B" stop-opacity="0.517"/>
<stop offset="0.8243" stop-color="#D20250" stop-opacity="0.824"/>
<stop offset="1" stop-color="#C00148"/>
</linearGradient>
<linearGradient id="paint29_linear_675_566" x1="8.9092" y1="15.7157" x2="9.8511" y2="16.6576" gradientUnits="userSpaceOnUse">
<stop stop-color="#FEF0AE"/>
<stop offset="1" stop-color="#FAC600"/>
</linearGradient>
<linearGradient id="paint30_linear_675_566" x1="9.51648" y1="16.2648" x2="9.51648" y2="17.4945" gradientUnits="userSpaceOnUse">
<stop stop-color="#FE9738" stop-opacity="0"/>
<stop offset="1" stop-color="#FE9738"/>
</linearGradient>
<linearGradient id="paint31_linear_675_566" x1="9.44307" y1="16.2601" x2="10.4253" y2="17.1075" gradientUnits="userSpaceOnUse">
<stop stop-color="#FE9738" stop-opacity="0"/>
<stop offset="1" stop-color="#FE9738"/>
</linearGradient>
<linearGradient id="paint32_linear_675_566" x1="25.8761" y1="10.6532" x2="26.818" y2="11.5951" gradientUnits="userSpaceOnUse">
<stop stop-color="#FEF0AE"/>
<stop offset="1" stop-color="#FAC600"/>
</linearGradient>
<linearGradient id="paint33_linear_675_566" x1="26.4834" y1="11.2023" x2="26.4834" y2="12.432" gradientUnits="userSpaceOnUse">
<stop stop-color="#FE9738" stop-opacity="0"/>
<stop offset="1" stop-color="#FE9738"/>
</linearGradient>
<linearGradient id="paint34_linear_675_566" x1="26.4098" y1="11.1976" x2="27.3921" y2="12.045" gradientUnits="userSpaceOnUse">
<stop stop-color="#FE9738" stop-opacity="0"/>
<stop offset="1" stop-color="#FE9738"/>
</linearGradient>
<clipPath id="clip0_675_566">
<rect width="36" height="36" fill="white" transform="translate(0 0.370239)"/>
</clipPath>
</defs>
</svg>
