<svg width="36" height="37" viewBox="0 0 36 37" fill="none" xmlns="http://www.w3.org/2000/svg">
<g id="3d star" clip-path="url(#clip0_675_538)">
<g id="Group">
<g id="Group_2">
<path id="Vector" d="M35.0871 6.57233C32.5003 5.83011 28.4498 5.80037 23.7513 6.51981C20.7362 3.26019 17.8784 1.38798 16.3877 0.536567C15.7861 0.19295 15.0183 0.398754 14.6691 0.997114C13.8038 2.47979 12.265 5.53009 11.2837 9.86057C6.85498 11.5867 3.36199 13.6378 1.49288 15.5739C1.0613 16.021 1.02206 16.7171 1.39627 17.2131C3.0683 19.429 6.45483 21.9533 10.8471 24.2023C11.3022 27.1755 12.1157 30.3716 13.4129 33.7618C13.6643 34.4186 14.4049 34.7453 15.059 34.4871C17.3095 33.5988 20.128 31.5772 23.0338 28.7779C26.95 29.7492 30.4017 30.0907 32.7948 29.7348C33.4904 29.6314 33.9685 28.9781 33.8578 28.2836C33.2862 24.699 32.3927 21.5244 31.3002 18.722C33.9794 14.5781 35.6502 10.6988 35.9902 7.94364C36.0664 7.32693 35.6843 6.74375 35.0871 6.57233Z" fill="url(#paint0_linear_675_538)"/>
<path id="Vector_2" d="M14.6692 0.996539C13.8039 2.47971 12.2654 5.52987 11.2834 9.86041L20.1044 17.8444L15.4337 0.413086C15.1226 0.496477 14.8437 0.697359 14.6692 0.996539Z" fill="url(#paint1_linear_675_538)"/>
<path id="Vector_3" d="M1.14136 16.4498C1.14192 16.7174 1.22545 16.9864 1.39631 17.2129C3.06848 19.4288 6.45551 21.9531 10.8472 24.2021C10.8479 24.2019 20.1146 17.8787 20.1146 17.8787L1.14136 16.4498Z" fill="url(#paint2_linear_675_538)"/>
<path id="Vector_4" d="M23.7514 6.52013L20.1042 17.845L15.4335 0.413629C15.7446 0.330238 16.0866 0.364832 16.3873 0.536676C17.8783 1.38844 20.7357 3.26072 23.7514 6.52013Z" fill="url(#paint3_linear_675_538)"/>
<path id="Vector_5" d="M23.7514 6.52013L20.1042 17.845L15.4335 0.413629C15.7446 0.330238 16.0866 0.364832 16.3873 0.536676C17.8783 1.38844 20.7357 3.26072 23.7514 6.52013Z" fill="url(#paint4_linear_675_538)"/>
<path id="Vector_6" d="M10.8478 24.2025C11.3026 27.176 12.1162 30.3722 13.4137 33.7617C13.6647 34.4187 14.4055 34.7457 15.0597 34.487C17.3105 33.5986 20.1282 31.5778 23.0341 28.7785L20.1139 17.8802L10.8478 24.2025Z" fill="url(#paint5_linear_675_538)"/>
<path id="Vector_7" d="M10.8478 24.2025C11.3026 27.176 12.1162 30.3722 13.4137 33.7617C13.6647 34.4187 14.4055 34.7457 15.0597 34.487C17.3105 33.5986 20.1282 31.5778 23.0341 28.7785L20.1139 17.8802L10.8478 24.2025Z" fill="url(#paint6_linear_675_538)"/>
<path id="Vector_8" d="M35.9904 7.94349C35.6503 10.6986 33.9791 14.5782 31.3004 18.7218L20.0933 17.8775L23.7516 6.51987C28.4499 5.80015 32.5001 5.83004 35.0869 6.57254C35.6842 6.74368 36.066 7.32664 35.9904 7.94349Z" fill="url(#paint7_linear_675_538)"/>
<path id="Vector_9" d="M35.9904 7.94349C35.6503 10.6986 33.9791 14.5782 31.3004 18.7218L20.0933 17.8775L23.7516 6.51987C28.4499 5.80015 32.5001 5.83004 35.0869 6.57254C35.6842 6.74368 36.066 7.32664 35.9904 7.94349Z" fill="url(#paint8_linear_675_538)"/>
<path id="Vector_10" d="M23.0339 28.7777C26.9501 29.7491 30.4018 30.0906 32.7949 29.7347C33.4905 29.6313 33.9686 28.978 33.8578 28.2834C33.2863 24.6989 32.3927 21.5243 31.3002 18.7218L20.1136 17.8792L23.0339 28.7777Z" fill="url(#paint9_linear_675_538)"/>
<path id="Vector_11" d="M23.0339 28.7777C26.9501 29.7491 30.4018 30.0906 32.7949 29.7347C33.4905 29.6313 33.9686 28.978 33.8578 28.2834C33.2863 24.6989 32.3927 21.5243 31.3002 18.7218L20.1136 17.8792L23.0339 28.7777Z" fill="url(#paint10_linear_675_538)"/>
</g>
<path id="Vector_12" d="M16.7732 26.7649L12.47 31.0681C12.7514 31.9515 13.0644 32.849 13.4135 33.761C13.6645 34.4181 14.4053 34.745 15.0595 34.4863C16.7267 33.8283 18.7051 32.5484 20.7998 30.7915L16.7732 26.7649Z" fill="url(#paint11_linear_675_538)"/>
<path id="Vector_13" d="M9.73608 20.2324L16.0601 26.5564H9.73608V20.2324Z" fill="url(#paint12_linear_675_538)"/>
<g id="Group_3">
<path id="Vector_14" d="M16.7732 26.7652C15.8017 25.9204 14.0514 25.0885 11.8687 24.4505C11.2204 22.4274 10.3598 21.0378 9.88558 20.3673C9.69418 20.0966 9.31963 20.0306 9.04724 20.2195C8.37224 20.6874 7.08826 21.6989 5.7872 23.3782C3.51786 23.2312 1.58863 23.4143 0.386708 23.8759C0.109184 23.9825 -0.048597 24.2763 0.0134187 24.5671C0.29038 25.866 1.24839 27.6453 2.69816 29.5086C2.29429 30.8898 2.0008 32.4401 1.8779 34.1724C1.85406 34.508 2.10915 34.7994 2.44504 34.8197C3.60048 34.8895 5.23131 34.5829 7.05732 33.9566C8.55899 35.1697 9.98661 36.0156 11.0962 36.3452C11.4187 36.4409 11.7581 36.2544 11.8505 35.9308C12.3275 34.261 12.5819 32.7037 12.6748 31.2678C14.6744 30.0127 16.1832 28.6684 16.8877 27.5425C17.0454 27.2905 16.9976 26.9603 16.7732 26.7652Z" fill="url(#paint13_linear_675_538)"/>
<path id="Vector_15" d="M9.04736 20.2192C8.37229 20.6874 7.08845 21.6989 5.78711 23.3781L7.99759 28.6235L9.49687 20.1209C9.34513 20.0941 9.18355 20.1248 9.04736 20.2192Z" fill="url(#paint14_linear_675_538)"/>
<path id="Vector_16" d="M0.0569656 24.1842C0.00310622 24.3004 -0.0150344 24.4339 0.0132312 24.5666C0.290262 25.8656 1.24848 27.6449 2.69797 29.5081C2.69832 29.5081 7.9949 28.64 7.9949 28.64L0.0569656 24.1842Z" fill="url(#paint15_linear_675_538)"/>
<path id="Vector_17" d="M11.8688 24.45L7.99756 28.623L9.49683 20.1204C9.64857 20.1472 9.78989 20.2312 9.88552 20.3665C10.3598 21.0374 11.2203 22.427 11.8688 24.45Z" fill="url(#paint16_linear_675_538)"/>
<path id="Vector_18" d="M11.8688 24.45L7.99756 28.623L9.49683 20.1204C9.64857 20.1472 9.78989 20.2312 9.88552 20.3665C10.3598 21.0374 11.2203 22.427 11.8688 24.45Z" fill="url(#paint17_linear_675_538)"/>
<path id="Vector_19" d="M2.69823 29.5081C2.29421 30.8894 2.00073 32.4398 1.87803 34.1718C1.85399 34.5075 2.10915 34.799 2.4451 34.8191C3.60069 34.889 5.23103 34.5825 7.05704 33.9562L7.99438 28.6403L2.69823 29.5081Z" fill="url(#paint18_linear_675_538)"/>
<path id="Vector_20" d="M2.69823 29.5081C2.29421 30.8894 2.00073 32.4398 1.87803 34.1718C1.85399 34.5075 2.10915 34.799 2.4451 34.8191C3.60069 34.889 5.23103 34.5825 7.05704 33.9562L7.99438 28.6403L2.69823 29.5081Z" fill="url(#paint19_linear_675_538)"/>
<path id="Vector_21" d="M16.8876 27.542C16.183 28.6678 14.674 30.0121 12.6747 31.2671L7.98596 28.6351L11.8686 24.4501C14.0513 25.0879 15.8015 25.9199 16.773 26.7648C16.9974 26.9598 17.0451 27.2898 16.8876 27.542Z" fill="url(#paint20_linear_675_538)"/>
<path id="Vector_22" d="M16.8876 27.542C16.183 28.6678 14.674 30.0121 12.6747 31.2671L7.98596 28.6351L11.8686 24.4501C14.0513 25.0879 15.8015 25.9199 16.773 26.7648C16.9974 26.9598 17.0451 27.2898 16.8876 27.542Z" fill="url(#paint21_linear_675_538)"/>
<path id="Vector_23" d="M7.05713 33.9564C8.55879 35.1694 9.98642 36.0153 11.096 36.3449C11.4185 36.4407 11.7579 36.2541 11.8503 35.9305C12.3273 34.2607 12.5817 32.7035 12.6746 31.2675L7.99446 28.6403L7.05713 33.9564Z" fill="url(#paint22_linear_675_538)"/>
<path id="Vector_24" d="M7.05713 33.9564C8.55879 35.1694 9.98642 36.0153 11.096 36.3449C11.4185 36.4407 11.7579 36.2541 11.8503 35.9305C12.3273 34.2607 12.5817 32.7035 12.6746 31.2675L7.99446 28.6403L7.05713 33.9564Z" fill="url(#paint23_linear_675_538)"/>
</g>
</g>
</g>
<defs>
<linearGradient id="paint0_linear_675_538" x1="10.611" y1="13.19" x2="29.7351" y2="23.1952" gradientUnits="userSpaceOnUse">
<stop stop-color="#FEF0AE"/>
<stop offset="1" stop-color="#FAC600"/>
</linearGradient>
<linearGradient id="paint1_linear_675_538" x1="14.4208" y1="10.0244" x2="7.90699" y2="11.7709" gradientUnits="userSpaceOnUse">
<stop stop-color="#FE9738" stop-opacity="0"/>
<stop offset="1" stop-color="#FE9738"/>
</linearGradient>
<linearGradient id="paint2_linear_675_538" x1="12.3322" y1="21.8492" x2="13.1132" y2="23.9484" gradientUnits="userSpaceOnUse">
<stop stop-color="#FE9738" stop-opacity="0"/>
<stop offset="1" stop-color="#FE9738"/>
</linearGradient>
<linearGradient id="paint3_linear_675_538" x1="21.3218" y1="9.04712" x2="24.5789" y2="8.9918" gradientUnits="userSpaceOnUse">
<stop stop-color="#FE9738" stop-opacity="0"/>
<stop offset="1" stop-color="#FE9738"/>
</linearGradient>
<linearGradient id="paint4_linear_675_538" x1="20.6439" y1="6.9771" x2="23.8232" y2="4.59774" gradientUnits="userSpaceOnUse">
<stop stop-color="#FE9738" stop-opacity="0"/>
<stop offset="1" stop-color="#FE9738"/>
</linearGradient>
<linearGradient id="paint5_linear_675_538" x1="18.7212" y1="28.3661" x2="20.7978" y2="31.0267" gradientUnits="userSpaceOnUse">
<stop stop-color="#FE9738" stop-opacity="0"/>
<stop offset="1" stop-color="#FE9738"/>
</linearGradient>
<linearGradient id="paint6_linear_675_538" x1="20.4468" y1="26.3184" x2="23.0119" y2="26.3941" gradientUnits="userSpaceOnUse">
<stop stop-color="#FE9738" stop-opacity="0"/>
<stop offset="1" stop-color="#FE9738"/>
</linearGradient>
<linearGradient id="paint7_linear_675_538" x1="30.1296" y1="13.212" x2="33.268" y2="14.4427" gradientUnits="userSpaceOnUse">
<stop stop-color="#FE9738" stop-opacity="0"/>
<stop offset="1" stop-color="#FE9738"/>
</linearGradient>
<linearGradient id="paint8_linear_675_538" x1="28.8002" y1="16.5319" x2="29.3217" y2="19.155" gradientUnits="userSpaceOnUse">
<stop stop-color="#FE9738" stop-opacity="0"/>
<stop offset="1" stop-color="#FE9738"/>
</linearGradient>
<linearGradient id="paint9_linear_675_538" x1="28.6152" y1="23.3144" x2="32.7261" y2="22.3758" gradientUnits="userSpaceOnUse">
<stop stop-color="#FE9738" stop-opacity="0"/>
<stop offset="1" stop-color="#FE9738"/>
</linearGradient>
<linearGradient id="paint10_linear_675_538" x1="25.0199" y1="27.6264" x2="24.3483" y2="29.088" gradientUnits="userSpaceOnUse">
<stop stop-color="#FE9738" stop-opacity="0"/>
<stop offset="1" stop-color="#FE9738"/>
</linearGradient>
<linearGradient id="paint11_linear_675_538" x1="18.7219" y1="33.3155" x2="13.5927" y2="29.1552" gradientUnits="userSpaceOnUse">
<stop stop-color="#FE9738" stop-opacity="0"/>
<stop offset="1" stop-color="#FE9738"/>
</linearGradient>
<linearGradient id="paint12_linear_675_538" x1="13.6519" y1="23.0844" x2="11.296" y2="24.0534" gradientUnits="userSpaceOnUse">
<stop stop-color="#FE9738" stop-opacity="0"/>
<stop offset="1" stop-color="#FE9738"/>
</linearGradient>
<linearGradient id="paint13_linear_675_538" x1="4.81281" y1="24.692" x2="11.0791" y2="32.9011" gradientUnits="userSpaceOnUse">
<stop stop-color="#FEF0AE"/>
<stop offset="1" stop-color="#FAC600"/>
</linearGradient>
<linearGradient id="paint14_linear_675_538" x1="7.10534" y1="24.0907" x2="3.92765" y2="23.5294" gradientUnits="userSpaceOnUse">
<stop stop-color="#FE9738" stop-opacity="0"/>
<stop offset="1" stop-color="#FE9738"/>
</linearGradient>
<linearGradient id="paint15_linear_675_538" x1="3.80606" y1="28.7943" x2="3.71978" y2="29.8625" gradientUnits="userSpaceOnUse">
<stop stop-color="#FE9738" stop-opacity="0"/>
<stop offset="1" stop-color="#FE9738"/>
</linearGradient>
<linearGradient id="paint16_linear_675_538" x1="10.2954" y1="25.0633" x2="11.7188" y2="25.6986" gradientUnits="userSpaceOnUse">
<stop stop-color="#FE9738" stop-opacity="0"/>
<stop offset="1" stop-color="#FE9738"/>
</linearGradient>
<linearGradient id="paint17_linear_675_538" x1="10.4205" y1="24.0286" x2="12.2806" y2="23.6405" gradientUnits="userSpaceOnUse">
<stop stop-color="#FE9738" stop-opacity="0"/>
<stop offset="1" stop-color="#FE9738"/>
</linearGradient>
<linearGradient id="paint18_linear_675_538" x1="5.25699" y1="32.9129" x2="5.6188" y2="34.4868" gradientUnits="userSpaceOnUse">
<stop stop-color="#FE9738" stop-opacity="0"/>
<stop offset="1" stop-color="#FE9738"/>
</linearGradient>
<linearGradient id="paint19_linear_675_538" x1="6.41969" y1="32.3744" x2="7.51651" y2="32.9264" gradientUnits="userSpaceOnUse">
<stop stop-color="#FE9738" stop-opacity="0"/>
<stop offset="1" stop-color="#FE9738"/>
</linearGradient>
<linearGradient id="paint20_linear_675_538" x1="13.2708" y1="28.6521" x2="14.3823" y2="29.8209" gradientUnits="userSpaceOnUse">
<stop stop-color="#FE9738" stop-opacity="0"/>
<stop offset="1" stop-color="#FE9738"/>
</linearGradient>
<linearGradient id="paint21_linear_675_538" x1="12.0223" y1="29.8223" x2="11.7175" y2="31.0652" gradientUnits="userSpaceOnUse">
<stop stop-color="#FE9738" stop-opacity="0"/>
<stop offset="1" stop-color="#FE9738"/>
</linearGradient>
<linearGradient id="paint22_linear_675_538" x1="10.5693" y1="32.7259" x2="12.5416" y2="33.1512" gradientUnits="userSpaceOnUse">
<stop stop-color="#FE9738" stop-opacity="0"/>
<stop offset="1" stop-color="#FE9738"/>
</linearGradient>
<linearGradient id="paint23_linear_675_538" x1="8.13761" y1="33.8677" x2="7.55062" y2="34.3655" gradientUnits="userSpaceOnUse">
<stop stop-color="#FE9738" stop-opacity="0"/>
<stop offset="1" stop-color="#FE9738"/>
</linearGradient>
<clipPath id="clip0_675_538">
<rect width="36" height="36" fill="white" transform="translate(0 0.370239)"/>
</clipPath>
</defs>
</svg>
