<svg width="36" height="37" viewBox="0 0 36 37" fill="none" xmlns="http://www.w3.org/2000/svg">
<g id="3d target" clip-path="url(#clip0_675_498)">
<g id="Group">
<g id="Group_2">
<path id="Vector" d="M22.928 1.85779H18.8651V34.8818H22.928C30.147 34.8819 36.0001 27.4889 36.0001 18.3698C36.0001 9.2508 30.147 1.85779 22.928 1.85779Z" fill="url(#paint0_linear_675_498)"/>
<path id="Vector_2" d="M22.928 1.85779H18.8651V34.8818H22.928C30.147 34.8819 36.0001 27.4889 36.0001 18.3698C36.0001 9.2508 30.147 1.85779 22.928 1.85779Z" fill="url(#paint1_linear_675_498)"/>
<path id="Vector_3" d="M18.8652 34.8822H22.9281C30.1472 34.8822 36.0003 27.4892 36.0003 18.3701C36.0003 17.5627 35.9536 16.7692 35.8649 15.9928H18.8652V34.8822Z" fill="url(#paint2_linear_675_498)"/>
<g id="Group_3">
<path id="Vector_4" d="M18.8651 34.8816C26.0846 34.8816 31.9371 27.489 31.9371 18.3697C31.9371 9.25042 26.0846 1.85779 18.8651 1.85779C11.6456 1.85779 5.79309 9.25042 5.79309 18.3697C5.79309 27.489 11.6456 34.8816 18.8651 34.8816Z" fill="url(#paint3_linear_675_498)"/>
<path id="Vector_5" d="M19.0042 17.6858H5.80511C5.7978 17.9127 5.79309 18.1405 5.79309 18.3697C5.79309 27.489 11.6456 34.8816 18.8651 34.8816C23.2023 34.8816 27.0455 32.2126 29.4234 28.1049L19.0042 17.6858Z" fill="url(#paint4_linear_675_498)"/>
<path id="Vector_6" d="M5.79309 18.3693C5.79309 27.4886 11.6456 34.8812 18.8651 34.8812C26.0846 34.8812 31.9371 27.4886 31.9371 18.3693C31.9371 18.0391 31.9285 17.7113 31.9134 17.3859H5.81686C5.80167 17.7113 5.79309 18.0391 5.79309 18.3693Z" fill="url(#paint5_linear_675_498)"/>
<path id="Vector_7" d="M16.0488 17.3859H5.81679C5.80167 17.7113 5.79309 18.0391 5.79309 18.3693C5.79309 26.2672 10.1832 32.8687 16.0488 34.4958V17.3859Z" fill="url(#paint6_linear_675_498)"/>
<path id="Vector_8" d="M18.8651 1.85779C18.1311 1.85779 17.4117 1.93541 16.7107 2.0823V34.6572C17.4117 34.804 18.1312 34.8817 18.8651 34.8817C26.0846 34.8817 31.9371 27.489 31.9371 18.3698C31.9371 9.25051 26.0846 1.85779 18.8651 1.85779Z" fill="url(#paint7_linear_675_498)"/>
<path id="Vector_9" d="M18.8651 4.80542C12.9346 4.80542 8.12659 10.8789 8.12659 18.37C8.12659 25.8611 12.9346 31.9345 18.8651 31.9345C24.7955 31.9345 29.6036 25.8611 29.6036 18.37C29.6036 10.8789 24.7956 4.80542 18.8651 4.80542ZM18.8651 29.2221C14.1204 29.2221 10.2739 24.363 10.2739 18.37C10.2739 12.377 14.1204 7.51786 18.8651 7.51786C23.6098 7.51786 27.4562 12.3769 27.4562 18.37C27.4562 24.3631 23.6098 29.2221 18.8651 29.2221Z" fill="url(#paint8_linear_675_498)"/>
<path id="Vector_10" d="M18.8653 10.4601C15.4069 10.4601 12.604 14.0012 12.604 18.3694C12.604 22.7376 15.4069 26.2787 18.8653 26.2787C22.3237 26.2787 25.1266 22.7376 25.1266 18.3694C25.1266 14.0012 22.3237 10.4601 18.8653 10.4601ZM18.8653 23.1087C16.7929 23.1087 15.1131 20.9868 15.1131 18.3694C15.1131 15.752 16.7928 13.6301 18.8653 13.6301C20.9377 13.6301 22.6174 15.752 22.6174 18.3694C22.6174 20.9868 20.9377 23.1087 18.8653 23.1087Z" fill="url(#paint9_linear_675_498)"/>
<path id="Vector_11" d="M22.0971 20.7788C21.4439 22.1738 20.2409 23.109 18.8648 23.109C16.7927 23.109 15.113 20.987 15.113 18.3699C15.113 18.1372 15.1263 17.9087 15.1516 17.6858H12.6274C12.6112 17.9115 12.6035 18.1393 12.6035 18.3699C12.6035 22.7384 15.4069 26.2794 18.8648 26.2794C21.0389 26.2794 22.9535 24.8809 24.075 22.7567L22.0971 20.7788Z" fill="url(#paint10_linear_675_498)"/>
</g>
</g>
<path id="Vector_12" d="M25.9059 24.5882C24.3527 27.3902 21.7779 29.2218 18.8648 29.2218C14.1201 29.2218 10.2741 24.3625 10.2741 18.3698C10.2741 18.1399 10.2797 17.9121 10.2909 17.6857H8.14007C8.13093 17.9121 8.12671 18.1406 8.12671 18.3698C8.12671 25.8609 12.9347 31.9345 18.8648 31.9345C22.4606 31.9345 25.643 29.7021 27.5927 26.275L25.9059 24.5882Z" fill="url(#paint11_linear_675_498)"/>
<g id="Group_4">
<g id="Group_5">
<path id="Vector_13" d="M12.907 18.3702H3.90141L0.119297 12.9808C-0.18375 12.5491 0.125625 11.9542 0.652969 11.9542H1.04391C1.4257 11.9542 1.78359 12.1398 2.00227 12.4527L2.87203 13.6916L2.53242 12.5006C2.45438 12.227 2.65969 11.9542 2.94445 11.9542H4.4992C4.57373 11.9542 4.64552 11.9822 4.70037 12.0327L4.92445 12.2388C5.0212 12.3278 5.16492 12.3426 5.27784 12.2753C5.3682 12.2214 5.48027 12.2193 5.57259 12.2697L5.92338 12.4614C6.0612 12.5367 6.23234 12.51 6.34062 12.3962C6.63115 12.0909 7.06596 11.9719 7.47258 12.0826C8.28019 12.3026 8.99709 12.798 9.48914 13.4996L12.907 18.3702Z" fill="url(#paint12_linear_675_498)"/>
<path id="Vector_14" d="M3.90128 18.3699H12.9069L10.2334 14.5602H1.22778L3.90128 18.3699Z" fill="url(#paint13_linear_675_498)"/>
<g id="Group_6">
<path id="Vector_15" d="M9.48929 13.4997C8.99717 12.7981 8.28033 12.3027 7.47272 12.0827C7.06611 11.9719 6.6313 12.091 6.34076 12.3963C6.23248 12.51 6.06134 12.5368 5.92353 12.4615L5.57274 12.2698C5.48042 12.2193 5.36834 12.2214 5.27799 12.2753C5.16507 12.3426 5.02135 12.3277 4.9246 12.2388L4.70051 12.0327C4.64567 11.9822 4.57388 11.9542 4.49935 11.9542H2.9446C2.65983 11.9542 2.45452 12.227 2.53257 12.5006L2.86522 13.6672L6.16547 18.3702H12.9071L9.48929 13.4997Z" fill="url(#paint14_linear_675_498)"/>
</g>
<g id="Group_7">
<path id="Vector_16" d="M9.48934 13.4997C8.99722 12.7981 8.28038 12.3027 7.47277 12.0827C7.06616 11.9719 6.63134 12.091 6.34081 12.3963C6.23253 12.51 6.06139 12.5368 5.92358 12.4615L5.57279 12.2698C5.48047 12.2193 5.36839 12.2214 5.27804 12.2753C5.16512 12.3426 5.0214 12.3277 4.92465 12.2388L4.70056 12.0327C4.64572 11.9822 4.57393 11.9542 4.4994 11.9542H2.94465C2.84164 11.9542 2.74932 11.9903 2.67676 12.0488C2.73856 12.0552 2.8003 12.066 2.8614 12.0827C3.66901 12.3027 4.38591 12.7981 4.87796 13.4997L8.29585 18.3702H12.9072L9.48934 13.4997Z" fill="url(#paint15_linear_675_498)"/>
</g>
<g id="Group_8">
<path id="Vector_17" d="M9.48915 13.4997C8.99703 12.7981 8.28019 12.3027 7.47258 12.0827C7.06597 11.9719 6.63115 12.0909 6.34062 12.3962C6.23234 12.51 6.0612 12.5367 5.92339 12.4614L5.5726 12.2698C5.48028 12.2193 5.3682 12.2214 5.27785 12.2752C5.20247 12.3202 5.1136 12.3277 5.03394 12.3018C5.59629 12.567 6.08919 12.9758 6.45664 13.4997L9.87453 18.3702H12.907L9.48915 13.4997Z" fill="url(#paint16_linear_675_498)"/>
</g>
<g id="Group_9">
<path id="Vector_18" d="M9.48915 13.4997C8.99703 12.7981 8.28019 12.3027 7.47258 12.0827C7.06597 11.9719 6.63115 12.0909 6.34062 12.3962C6.23234 12.51 6.0612 12.5367 5.92339 12.4614L5.5726 12.2698C5.48028 12.2193 5.3682 12.2214 5.27785 12.2752C5.20247 12.3202 5.1136 12.3277 5.03394 12.3018C5.59629 12.567 6.08919 12.9758 6.45664 13.4997L9.87453 18.3702H12.907L9.48915 13.4997Z" fill="url(#paint17_linear_675_498)"/>
</g>
</g>
<g id="Group_10">
<path id="Vector_19" d="M12.907 18.3702H3.90141L0.119297 23.7597C-0.18375 24.1914 0.125625 24.7863 0.652969 24.7863H1.04391C1.4257 24.7863 1.78359 24.6006 2.00227 24.2877L2.87203 23.0488L2.53242 24.2399C2.45438 24.5134 2.65969 24.7863 2.94445 24.7863H4.4992C4.57373 24.7863 4.64552 24.7583 4.70037 24.7078L4.92445 24.5017C5.0212 24.4127 5.16492 24.3978 5.27784 24.4652C5.3682 24.5191 5.48027 24.5212 5.57259 24.4708L5.92338 24.2791C6.0612 24.2038 6.23234 24.2305 6.34062 24.3443C6.63115 24.6496 7.06596 24.7686 7.47258 24.6579C8.28019 24.4379 8.99709 23.9424 9.48914 23.2409L12.907 18.3702Z" fill="url(#paint18_linear_675_498)"/>
<path id="Vector_20" d="M1.79105 21.3772L0.119297 23.7595C-0.18375 24.1912 0.125625 24.7861 0.652969 24.7861H1.04391C1.4257 24.7861 1.78359 24.6005 2.00227 24.2876L2.87203 23.0487L2.53242 24.2398C2.45438 24.5133 2.65969 24.7861 2.94445 24.7861H4.4992C4.57373 24.7861 4.64552 24.7581 4.70037 24.7076L4.92445 24.5015C5.0212 24.4125 5.16492 24.3977 5.27784 24.465C5.3682 24.5189 5.48027 24.521 5.57259 24.4706L5.92338 24.2789C6.0612 24.2036 6.23234 24.2303 6.34062 24.3441C6.63115 24.6494 7.06596 24.7684 7.47258 24.6577C8.28019 24.4377 8.99709 23.9423 9.48914 23.2407L10.7967 21.3773H1.79105V21.3772Z" fill="url(#paint19_linear_675_498)"/>
<g id="Group_11">
<path id="Vector_21" d="M9.48929 23.2408C8.99717 23.9424 8.28033 24.4378 7.47272 24.6578C7.06611 24.7685 6.6313 24.6495 6.34076 24.3442C6.23248 24.2304 6.06134 24.2037 5.92353 24.279L5.57274 24.4707C5.48042 24.5212 5.36834 24.5191 5.27799 24.4652C5.16507 24.3979 5.02135 24.4128 4.9246 24.5017L4.70051 24.7078C4.64567 24.7583 4.57388 24.7863 4.49935 24.7863H2.9446C2.65983 24.7863 2.45452 24.5134 2.53257 24.2399L2.86522 23.0732L6.16547 18.3702H12.9071L9.48929 23.2408Z" fill="url(#paint20_linear_675_498)"/>
</g>
<g id="Group_12">
<path id="Vector_22" d="M9.48934 23.2408C8.99722 23.9424 8.28038 24.4378 7.47277 24.6578C7.06616 24.7685 6.63134 24.6495 6.34081 24.3442C6.23253 24.2304 6.06139 24.2037 5.92358 24.279L5.57279 24.4707C5.48047 24.5212 5.36839 24.5191 5.27804 24.4652C5.16512 24.3979 5.0214 24.4128 4.92465 24.5017L4.70056 24.7078C4.64572 24.7583 4.57393 24.7863 4.4994 24.7863H2.94465C2.84164 24.7863 2.74932 24.7502 2.67676 24.6917C2.73856 24.6853 2.8003 24.6745 2.8614 24.6578C3.66901 24.4378 4.38591 23.9424 4.87796 23.2408L8.29585 18.3702H12.9072L9.48934 23.2408Z" fill="url(#paint21_linear_675_498)"/>
</g>
<g id="Group_13">
<path id="Vector_23" d="M9.48915 23.2408C8.99703 23.9424 8.28019 24.4378 7.47258 24.6578C7.06597 24.7685 6.63115 24.6495 6.34062 24.3442C6.23234 24.2304 6.0612 24.2037 5.92339 24.279L5.5726 24.4707C5.48028 24.5212 5.3682 24.5191 5.27785 24.4652C5.20247 24.4203 5.1136 24.4128 5.03394 24.4386C5.59629 24.1735 6.08919 23.7647 6.45664 23.2408L9.87453 18.3702H12.907L9.48915 23.2408Z" fill="url(#paint22_linear_675_498)"/>
</g>
<g id="Group_14">
<path id="Vector_24" d="M9.48915 23.2408C8.99703 23.9424 8.28019 24.4378 7.47258 24.6578C7.06597 24.7685 6.63115 24.6495 6.34062 24.3442C6.23234 24.2304 6.0612 24.2037 5.92339 24.279L5.5726 24.4707C5.48028 24.5212 5.3682 24.5191 5.27785 24.4652C5.20247 24.4203 5.1136 24.4128 5.03394 24.4386C5.59629 24.1735 6.08919 23.7647 6.45664 23.2408L9.87453 18.3702H12.907L9.48915 23.2408Z" fill="url(#paint23_linear_675_498)"/>
</g>
</g>
</g>
<path id="Vector_25" d="M19.2757 18.3695V18.3797C19.2753 18.9175 18.8391 19.3532 18.3013 19.3532H0.983672C0.440437 19.3532 0 18.9128 0 18.3695C0 17.8263 0.440437 17.3859 0.983672 17.3859H18.3014C18.8392 17.3859 19.2753 17.8216 19.2758 18.3594L19.2757 18.3695Z" fill="url(#paint24_linear_675_498)"/>
</g>
</g>
<defs>
<linearGradient id="paint0_linear_675_498" x1="27.4326" y1="3.16933" x2="27.4326" y2="35.3502" gradientUnits="userSpaceOnUse">
<stop stop-color="#FFA1AE"/>
<stop offset="1" stop-color="#FF4565"/>
</linearGradient>
<linearGradient id="paint1_linear_675_498" x1="27.3851" y1="20.7251" x2="35.3201" y2="24.1967" gradientUnits="userSpaceOnUse">
<stop stop-color="#FE0364" stop-opacity="0"/>
<stop offset="0.2343" stop-color="#F90362" stop-opacity="0.234"/>
<stop offset="0.5173" stop-color="#EA035B" stop-opacity="0.517"/>
<stop offset="0.8243" stop-color="#D20250" stop-opacity="0.824"/>
<stop offset="1" stop-color="#C00148"/>
</linearGradient>
<linearGradient id="paint2_linear_675_498" x1="27.4328" y1="19.2878" x2="27.4328" y2="33.8882" gradientUnits="userSpaceOnUse">
<stop stop-color="#FE0364" stop-opacity="0"/>
<stop offset="0.2343" stop-color="#F90362" stop-opacity="0.234"/>
<stop offset="0.5173" stop-color="#EA035B" stop-opacity="0.517"/>
<stop offset="0.8243" stop-color="#D20250" stop-opacity="0.824"/>
<stop offset="1" stop-color="#C00148"/>
</linearGradient>
<linearGradient id="paint3_linear_675_498" x1="9.41883" y1="12.9355" x2="29.9178" y2="24.728" gradientUnits="userSpaceOnUse">
<stop stop-color="#FFA1AE"/>
<stop offset="1" stop-color="#FF4565"/>
</linearGradient>
<linearGradient id="paint4_linear_675_498" x1="17.5827" y1="24.6664" x2="15.678" y2="18.3007" gradientUnits="userSpaceOnUse">
<stop stop-color="#FE0364" stop-opacity="0"/>
<stop offset="0.2343" stop-color="#F90362" stop-opacity="0.234"/>
<stop offset="0.5173" stop-color="#EA035B" stop-opacity="0.517"/>
<stop offset="0.8243" stop-color="#D20250" stop-opacity="0.824"/>
<stop offset="1" stop-color="#C00148"/>
</linearGradient>
<linearGradient id="paint5_linear_675_498" x1="18.8651" y1="26.6435" x2="18.8651" y2="36.0888" gradientUnits="userSpaceOnUse">
<stop stop-color="#FE0364" stop-opacity="0"/>
<stop offset="0.2343" stop-color="#F90362" stop-opacity="0.234"/>
<stop offset="0.5173" stop-color="#EA035B" stop-opacity="0.517"/>
<stop offset="0.8243" stop-color="#D20250" stop-opacity="0.824"/>
<stop offset="1" stop-color="#C00148"/>
</linearGradient>
<linearGradient id="paint6_linear_675_498" x1="12.2644" y1="23.3152" x2="10.1927" y2="21.4105" gradientUnits="userSpaceOnUse">
<stop stop-color="#FE0364" stop-opacity="0"/>
<stop offset="0.2343" stop-color="#F90362" stop-opacity="0.234"/>
<stop offset="0.5173" stop-color="#EA035B" stop-opacity="0.517"/>
<stop offset="0.8243" stop-color="#D20250" stop-opacity="0.824"/>
<stop offset="1" stop-color="#C00148"/>
</linearGradient>
<linearGradient id="paint7_linear_675_498" x1="23.603" y1="21.5158" x2="30.4635" y2="27.3845" gradientUnits="userSpaceOnUse">
<stop stop-color="#FE0364" stop-opacity="0"/>
<stop offset="0.2343" stop-color="#F90362" stop-opacity="0.234"/>
<stop offset="0.5173" stop-color="#EA035B" stop-opacity="0.517"/>
<stop offset="0.8243" stop-color="#D20250" stop-opacity="0.824"/>
<stop offset="1" stop-color="#C00148"/>
</linearGradient>
<linearGradient id="paint8_linear_675_498" x1="11.1051" y1="13.9059" x2="27.9447" y2="23.5932" gradientUnits="userSpaceOnUse">
<stop stop-color="#F5FBFF"/>
<stop offset="1" stop-color="#DBD5EF"/>
</linearGradient>
<linearGradient id="paint9_linear_675_498" x1="14.3405" y1="15.7664" x2="24.1595" y2="21.415" gradientUnits="userSpaceOnUse">
<stop stop-color="#F5FBFF"/>
<stop offset="1" stop-color="#DBD5EF"/>
</linearGradient>
<linearGradient id="paint10_linear_675_498" x1="18.2957" y1="21.2172" x2="17.1596" y2="17.742" gradientUnits="userSpaceOnUse">
<stop stop-color="#DBD5EF" stop-opacity="0"/>
<stop offset="0.2853" stop-color="#D9D2EE" stop-opacity="0.285"/>
<stop offset="0.4739" stop-color="#D4C9E9" stop-opacity="0.474"/>
<stop offset="0.6346" stop-color="#CBBAE2" stop-opacity="0.635"/>
<stop offset="0.7795" stop-color="#BFA5D7" stop-opacity="0.78"/>
<stop offset="0.9126" stop-color="#AF8ACA" stop-opacity="0.913"/>
<stop offset="1" stop-color="#A274BF"/>
</linearGradient>
<linearGradient id="paint11_linear_675_498" x1="13.8024" y1="22.6075" x2="11.5636" y2="20.803" gradientUnits="userSpaceOnUse">
<stop stop-color="#DBD5EF" stop-opacity="0"/>
<stop offset="0.2853" stop-color="#D9D2EE" stop-opacity="0.285"/>
<stop offset="0.4739" stop-color="#D4C9E9" stop-opacity="0.474"/>
<stop offset="0.6346" stop-color="#CBBAE2" stop-opacity="0.635"/>
<stop offset="0.7795" stop-color="#BFA5D7" stop-opacity="0.78"/>
<stop offset="0.9126" stop-color="#AF8ACA" stop-opacity="0.913"/>
<stop offset="1" stop-color="#A274BF"/>
</linearGradient>
<linearGradient id="paint12_linear_675_498" x1="6.45347" y1="12.7352" x2="6.45347" y2="16.6889" gradientUnits="userSpaceOnUse">
<stop stop-color="#B3DAFE"/>
<stop offset="1" stop-color="#0182FC"/>
</linearGradient>
<linearGradient id="paint13_linear_675_498" x1="7.06731" y1="16.1641" x2="7.06731" y2="17.9191" gradientUnits="userSpaceOnUse">
<stop stop-color="#314DC9" stop-opacity="0"/>
<stop offset="0.2761" stop-color="#304BC4" stop-opacity="0.276"/>
<stop offset="0.5628" stop-color="#2B45B8" stop-opacity="0.563"/>
<stop offset="0.8535" stop-color="#243BA3" stop-opacity="0.854"/>
<stop offset="1" stop-color="#1F3596"/>
</linearGradient>
<linearGradient id="paint14_linear_675_498" x1="6.70569" y1="16.2137" x2="5.02655" y2="17.7675" gradientUnits="userSpaceOnUse">
<stop stop-color="#314DC9" stop-opacity="0"/>
<stop offset="0.2761" stop-color="#304BC4" stop-opacity="0.276"/>
<stop offset="0.5628" stop-color="#2B45B8" stop-opacity="0.563"/>
<stop offset="0.8535" stop-color="#243BA3" stop-opacity="0.854"/>
<stop offset="1" stop-color="#1F3596"/>
</linearGradient>
<linearGradient id="paint15_linear_675_498" x1="7.59835" y1="15.471" x2="6.16981" y2="17.4008" gradientUnits="userSpaceOnUse">
<stop stop-color="#314DC9" stop-opacity="0"/>
<stop offset="0.2761" stop-color="#304BC4" stop-opacity="0.276"/>
<stop offset="0.5628" stop-color="#2B45B8" stop-opacity="0.563"/>
<stop offset="0.8535" stop-color="#243BA3" stop-opacity="0.854"/>
<stop offset="1" stop-color="#1F3596"/>
</linearGradient>
<linearGradient id="paint16_linear_675_498" x1="8.30825" y1="15.6023" x2="5.87726" y2="16.5797" gradientUnits="userSpaceOnUse">
<stop stop-color="#314DC9" stop-opacity="0"/>
<stop offset="0.2761" stop-color="#304BC4" stop-opacity="0.276"/>
<stop offset="0.5628" stop-color="#2B45B8" stop-opacity="0.563"/>
<stop offset="0.8535" stop-color="#243BA3" stop-opacity="0.854"/>
<stop offset="1" stop-color="#1F3596"/>
</linearGradient>
<linearGradient id="paint17_linear_675_498" x1="9.14476" y1="15.2404" x2="10.4229" y2="14.5386" gradientUnits="userSpaceOnUse">
<stop stop-color="#314DC9" stop-opacity="0"/>
<stop offset="0.2761" stop-color="#304BC4" stop-opacity="0.276"/>
<stop offset="0.5628" stop-color="#2B45B8" stop-opacity="0.563"/>
<stop offset="0.8535" stop-color="#243BA3" stop-opacity="0.854"/>
<stop offset="1" stop-color="#1F3596"/>
</linearGradient>
<linearGradient id="paint18_linear_675_498" x1="5.03681" y1="19.1037" x2="7.6182" y2="23.1888" gradientUnits="userSpaceOnUse">
<stop stop-color="#B3DAFE"/>
<stop offset="1" stop-color="#0182FC"/>
</linearGradient>
<linearGradient id="paint19_linear_675_498" x1="5.39836" y1="23.0564" x2="5.39836" y2="24.9941" gradientUnits="userSpaceOnUse">
<stop stop-color="#314DC9" stop-opacity="0"/>
<stop offset="0.2761" stop-color="#304BC4" stop-opacity="0.276"/>
<stop offset="0.5628" stop-color="#2B45B8" stop-opacity="0.563"/>
<stop offset="0.8535" stop-color="#243BA3" stop-opacity="0.854"/>
<stop offset="1" stop-color="#1F3596"/>
</linearGradient>
<linearGradient id="paint20_linear_675_498" x1="6.70569" y1="20.5268" x2="5.02655" y2="18.973" gradientUnits="userSpaceOnUse">
<stop stop-color="#314DC9" stop-opacity="0"/>
<stop offset="0.2761" stop-color="#304BC4" stop-opacity="0.276"/>
<stop offset="0.5628" stop-color="#2B45B8" stop-opacity="0.563"/>
<stop offset="0.8535" stop-color="#243BA3" stop-opacity="0.854"/>
<stop offset="1" stop-color="#1F3596"/>
</linearGradient>
<linearGradient id="paint21_linear_675_498" x1="7.59835" y1="21.2694" x2="6.16981" y2="19.3397" gradientUnits="userSpaceOnUse">
<stop stop-color="#314DC9" stop-opacity="0"/>
<stop offset="0.2761" stop-color="#304BC4" stop-opacity="0.276"/>
<stop offset="0.5628" stop-color="#2B45B8" stop-opacity="0.563"/>
<stop offset="0.8535" stop-color="#243BA3" stop-opacity="0.854"/>
<stop offset="1" stop-color="#1F3596"/>
</linearGradient>
<linearGradient id="paint22_linear_675_498" x1="8.30825" y1="21.1382" x2="5.87726" y2="20.1607" gradientUnits="userSpaceOnUse">
<stop stop-color="#314DC9" stop-opacity="0"/>
<stop offset="0.2761" stop-color="#304BC4" stop-opacity="0.276"/>
<stop offset="0.5628" stop-color="#2B45B8" stop-opacity="0.563"/>
<stop offset="0.8535" stop-color="#243BA3" stop-opacity="0.854"/>
<stop offset="1" stop-color="#1F3596"/>
</linearGradient>
<linearGradient id="paint23_linear_675_498" x1="9.14476" y1="21.5001" x2="10.4229" y2="22.2018" gradientUnits="userSpaceOnUse">
<stop stop-color="#314DC9" stop-opacity="0"/>
<stop offset="0.2761" stop-color="#304BC4" stop-opacity="0.276"/>
<stop offset="0.5628" stop-color="#2B45B8" stop-opacity="0.563"/>
<stop offset="0.8535" stop-color="#243BA3" stop-opacity="0.854"/>
<stop offset="1" stop-color="#1F3596"/>
</linearGradient>
<linearGradient id="paint24_linear_675_498" x1="9.63788" y1="17.6253" x2="9.63788" y2="18.8377" gradientUnits="userSpaceOnUse">
<stop stop-color="#5A5A5A"/>
<stop offset="1" stop-color="#444444"/>
</linearGradient>
<clipPath id="clip0_675_498">
<rect width="36" height="36" fill="white" transform="translate(0 0.370239)"/>
</clipPath>
</defs>
</svg>
