<svg width="24" height="25" viewBox="0 0 24 25" fill="none" xmlns="http://www.w3.org/2000/svg">
<g id="chevron-double-right-o">
<g id="chevron-double-right-o_2">
<path d="M8.46448 8.1275L7.05026 9.54172L9.87869 12.3701L7.05029 15.1985L8.46451 16.6128L12.7071 12.3701L8.46448 8.1275Z" fill="#797E88"/>
<path d="M11.2929 9.54172L12.7071 8.1275L16.9498 12.3701L12.7071 16.6128L11.2929 15.1985L14.1213 12.3701L11.2929 9.54172Z" fill="#797E88"/>
<path fill-rule="evenodd" clip-rule="evenodd" d="M1 12.3701C1 18.4452 5.92487 23.3701 12 23.3701C18.0751 23.3701 23 18.4452 23 12.3701C23 6.29498 18.0751 1.37012 12 1.37012C5.92487 1.37012 1 6.29498 1 12.3701ZM3 12.3701C3 17.3407 7.02944 21.3701 12 21.3701C16.9706 21.3701 21 17.3407 21 12.3701C21 7.39955 16.9706 3.37012 12 3.37012C7.02944 3.37012 3 7.39955 3 12.3701Z" fill="#797E88"/>
</g>
</g>
</svg>
